/* XPM */
static char *_9c48e630af74b9ed4d1911775204e42cy4A67oVJZ7NW51d[] = {
/* columns rows colors chars-per-pixel */
"64 64 235 2 ",
"   c #091B05",
".  c #091D04",
"X  c #0A2304",
"o  c #0B2B05",
"O  c #0E2409",
"+  c #0E2A08",
"@  c #12250D",
"#  c #132A0D",
"$  c #0D3405",
"%  c #0E3B06",
"&  c #103306",
"*  c #123D06",
"=  c #13320C",
"-  c #133B09",
";  c #172C12",
":  c #192914",
">  c #192B15",
",  c #1A3314",
"<  c #1A3813",
"1  c #1E3319",
"2  c #21331D",
"3  c #223C1D",
"4  c #263921",
"5  c #293925",
"6  c #2A3C25",
"7  c #313F2D",
"8  c #0F4306",
"9  c #014C01",
"0  c #124407",
"q  c #114C07",
"w  c #14440A",
"e  c #19460E",
"r  c #154C0A",
"t  c #194B0D",
"y  c #015301",
"u  c #005C00",
"i  c #0B5809",
"p  c #145309",
"a  c #1A530C",
"s  c #145B0A",
"d  c #1B5B0D",
"f  c #1C4415",
"g  c #1C4C13",
"h  c #1E4618",
"j  c #1D5313",
"k  c #1C5B13",
"l  c #224919",
"z  c #234C1B",
"x  c #225C17",
"c  c #24531B",
"v  c #29531D",
"b  c #255819",
"n  c #245A1A",
"m  c #006400",
"M  c #016B01",
"N  c #096B08",
"B  c #16630A",
"V  c #1C640C",
"C  c #176B0A",
"Z  c #1B6A0C",
"A  c #077007",
"S  c #097107",
"D  c #0D740A",
"F  c #11760C",
"G  c #19740C",
"H  c #14780E",
"J  c #1B7C0C",
"K  c #1B6614",
"L  c #197515",
"P  c #157A13",
"I  c #1C7E14",
"U  c #1B7D1B",
"Y  c #21650E",
"T  c #216C0D",
"R  c #23730D",
"E  c #23790D",
"W  c #246515",
"Q  c #246B14",
"!  c #26611B",
"~  c #29671A",
"^  c #2B6C1B",
"/  c #306F1F",
"(  c #247413",
")  c #2A7316",
"_  c #247B14",
"`  c #2A7C14",
"'  c #25731A",
"]  c #2D731B",
"[  c #257D1A",
"{  c #2B7B1B",
"}  c #31761D",
"|  c #317B1E",
" . c #284522",
".. c #2B4424",
"X. c #2B4B24",
"o. c #2E412A",
"O. c #32432D",
"+. c #324B2C",
"@. c #2B5322",
"#. c #2C5A23",
"$. c #2F5429",
"%. c #315A25",
"&. c #33532B",
"*. c #345B2C",
"=. c #385E2E",
"-. c #364C31",
";. c #394935",
":. c #3A4C35",
">. c #3B5835",
",. c #2D6724",
"<. c #326A24",
"1. c #35632B",
"2. c #34682A",
"3. c #2C7422",
"4. c #297C22",
"5. c #337C23",
"6. c #367729",
"7. c #3C6634",
"8. c #3D7734",
"9. c #41543D",
"0. c #425C3C",
"q. c #446A3A",
"w. c #45793A",
"e. c #475B43",
"r. c #486743",
"t. c #4B6B43",
"y. c #506F48",
"u. c #4B7442",
"i. c #4B7C43",
"p. c #517748",
"a. c #1C830D",
"s. c #1B840C",
"d. c #1E8214",
"f. c #1D821C",
"g. c #21860F",
"h. c #238314",
"j. c #2C8314",
"k. c #238B13",
"l. c #2C821B",
"z. c #288719",
"x. c #338A1A",
"c. c #269115",
"v. c #2C9619",
"b. c #35941D",
"n. c #329C1D",
"m. c #34A41E",
"M. c #248523",
"N. c #2E8422",
"B. c #2A8828",
"V. c #2B8D2B",
"C. c #348B23",
"Z. c #388528",
"A. c #3C8C2C",
"S. c #2F922F",
"D. c #389726",
"F. c #388934",
"G. c #339533",
"H. c #3C9439",
"J. c #3B9B3B",
"K. c #36A221",
"L. c #3BA524",
"P. c #3BA826",
"I. c #3CAC25",
"U. c #3EB127",
"Y. c #418C2D",
"T. c #42972C",
"R. c #448434",
"E. c #458D33",
"W. c #48873A",
"Q. c #4C8C3B",
"!. c #439234",
"~. c #499335",
"^. c #489937",
"/. c #4B943C",
"(. c #439B3E",
"). c #51963F",
"_. c #42A629",
"`. c #43AC2B",
"'. c #41B227",
"]. c #44B32B",
"[. c #49B52E",
"{. c #46B92D",
"}. c #49BA2E",
"|. c #4AAB35",
" X c #53A43D",
".X c #4BB533",
"XX c #4CB636",
"oX c #4CBB32",
"OX c #51BE35",
"+X c #52B43B",
"@X c #54BC3B",
"#X c #58BD3F",
"$X c #4FC036",
"%X c #53C236",
"&X c #56C33A",
"*X c #59C53C",
"=X c #59C83C",
"-X c #4A8844",
";X c #538946",
":X c #479943",
">X c #549344",
",X c #589849",
"<X c #5D9050",
"1X c #43A242",
"2X c #4BA647",
"3X c #4DAB4A",
"4X c #53A243",
"5X c #59A748",
"6X c #54AC4D",
"7X c #5AB445",
"8X c #5ABD43",
"9X c #59B54A",
"0X c #53AE50",
"qX c #5CB752",
"wX c #61BA4B",
"eX c #67AA57",
"rX c #66B957",
"tX c #6DB859",
"yX c #5DC343",
"uX c #5EC842",
"iX c #60C646",
"pX c #63C946",
"aX c #63C44B",
"sX c #64C94A",
"dX c #68CB4E",
"fX c #69C455",
"gX c #6CCC53",
"hX c #6FCC59",
"jX c #72C85B",
"kX c #73CC5C",
"lX c #75D15D",
"zX c #76C962",
"xX c #79CD62",
"cX c #7BD164",
"vX c #7CD167",
/* pixels */
"s.s.s.s.J s.s.s.G B G s.s.J J s.s.s.s.a.G J a.d.t e j W ' ' ^ { n c N.! l.[ l.' x [ z.K k Z G d.a.a.a.a.a.s.s.C J s.s.J G s.s.s.",
"G s.s.J B s.s.J s B s.s.s.s.B s G s.a.G Z d.d.h.Q k g f z n N.4.3.@.#.3.N.! N.c l l.' x g j L h.d.a.a.a.a.a.C G s.s.C G J s.s.s.",
"G G s.C p s.s.q 8 C s.s.s.s.G B 8 G a.q G d.k.Q x z.{ l 3 3 <.A.6.$. .,.5.#.,.@.v N.! ! n W g ( k.d J a.a.G p J s.C p G s.s.s.s.",
"J s s.0 % J C p $ $ 0 s C J J C q 0 B q L L [ j n N.C.,. .6 ..Z.A.&.o.*.2.6.$...X.@.@.v ^ { n g h.k L G J p q s.J p s J s.s.s.s.",
"G p s % 0 G p p s 8 o o 8 8 G G C * $ d _ K W h z C.5.<.$.&.$.=.8.-.O.=.7.8.1.+.X.6 ..@.Z.4.' c c Q h.k V * 0 J s p s s.s.s.s.s.",
"B C % o $ % 8 p J C 8 X o X p C C $ O a _ g z l #.Z.2.2.8.8.H.G.F.7.>.>.>.q.>.>.;.O.o...<.A.5.v 1 x ' j k e r Z q p G s.s.s.s.s.",
"p B p $ o . o q s.G B % o X X p B + O e k c 3 l X.$.*.8.^.(.G.U D B.F.q.t.r.9.:.:.:.;.+.+.Z.Z.X.2 z ! c j j w - 0 p a.s.s.s.s.s.",
"$ p % % X . . o s s.C % X o o X 0 + # f h c n  ...o.-.8.1XJ.f.A M M P M.F.i.r.e.9.0.>.>.-.+.1...4  .z n n g < # = s a.s J s.s.J ",
"o p $ . . X X X o C G $ . o $ X X + < ; 1 z X.$.o.O.;.0.:XJ.P A M M M M F M.F.-Xr.r.i.i.>.:.-.O.7 6 4 z c h ; ; = w J p G G s.C ",
"o s $ . . $ 8 % X o q $ o 0 o O O @ ; : 1 @.@.7 O.:.9.0.B.:XV.f.M M M M M M P U H.-X-X>Xr.q.:.O.O.o.6  . .1 1 , j w t V J Z a.0 ",
"X $ X . . % s p $ X X X - e - - = @ : : 2 X.X.O.;.0.u.2.P J.J.V.M.M M M M M M M M U :X>X-Xt.9.:.;.O.O.X.4 2 1 l ' g = a h.k s % ",
"  X . X X o p G % $ X . X - e a f < : 1 4 ..o.O.:.r.-XL H B.J.J.G.U M M M M M M M M S B.:X-Xr.e.:.;.;.+.6 4 2 ! l.f # j [ Z % o ",
"    . $ o . % B B $ X . . X = k g z 3 2 4 7 O.;.0.e.<.H H H V.J.G.S.P M M M M M M M M M P F.-Xr.e.9.:.O.O.6 4 3 ^ 1 ; ~ k V q o ",
".     % o . % p B q X X   . # f z z v 4 5 7 ;.9.r.>.H P P D P V.J.G.S.P M M M M M M M M M S U H.i.r.9.:.;.+...4 1 1 z n - t o $ ",
"o o X . o X $ % B q % X . . @ ; < v #.4 O.O.:.e.r.,.P P I I P P V.J.J.G.f.m M M M M M M M M M D B.-Xi.9.>.7.+.5 4 3 @.< < - + X ",
"B q $ X . . o $ B 0 o X X # # ; 1 v <.6 +.>.9.e.7.P I I I I I H D B.J.G.J.G.P S M M M M M M M M M f.S.-X-Xw.8.6 5 %.l : ; = + . ",
"s.J 0 o X . o o B % X O = = , , l ,.6.+.;.0.t.t.3.I P I I I I P D M f.J.J.G.1XG.f.D M M M M M M M M D M.H.(.R.*.=.=.1 : ; # O . ",
"s.G J $ o o O X $ X X = j g f c 3.Z.H.>.:.0.r.8.P I I I I I I H H M M M V.J.G.G.J.G.M.P m M M M M M M M U S.H.>.q.X.2 : @ @ O X ",
"G B s.G * * X . X X o w ( x ~ N.<.A.!.!.0.r.e.' I I I I I I H D D S M M M P G.J.G.J.G.G.G.U D S m M m M m F J.8.q.X.3 : @ @ O X ",
"s s s.G p 0 * & o o - K [ ~ ~ 5.6.A.E./.i.y.2.I I I I I I I H D S M M m m m N P S.G.J.J.J.1XH.G.V.P f.P f.S.J.8.&...3 1 : @ . . ",
"p s J B B q * - - - t _ l.{ ,.,.6.!.W.-X;Xi.U I I I I I I H D D S M M m m m u u y L M.B.1XJ.1XG.J.:XJ.J.1XJ.:X7.o.6 3 l ; @ .   ",
"r p p s B J 0 * w w g Q l.{ ,.%.8.!.w.-X;X5.I I I I I d.P D D S M M M m m m u u u y u u m 4.L S.B.J.J.J.G.H.w.-.7 5 3 ! < # @ . ",
"r r 0 q B s.C s a t g z ^ 5.%.*.8.W.-Xp.i.I I I I I d.I H H S S M M m m m u u u u u u y u 9 y y B L L N D <.0.O.7 4 2 l , < # + ",
"p 0 * * 0 C a.G d g n c v <.1.7.8.w.-X;X4.I I I I d.I H D D S M M M m m m m u u u u u y y y y y 9 y y y s q.q.-.&.4 2 1 < f e - ",
"0 0 0 e 0 0 J J j g c ! v %.7.W.q.u.;XR.I I I I I d.I H D S M M M m m m m m u u u u y y y 9 9 9 9 9 9 y 1.t.q.=.&. .3 , h t V G ",
"0 * p s p e e V / 6.^ n #.*.=.w.q.y.;X4.I I I I d.I H D D M M M m m m m u u u u u y y y 9 9 9 9 9 9 y k t.q.q.*.X.X.l f z g J G ",
"0 0 p C V a e e c E.^.~.W.w.7.q.t.p.F.I I I I d.I I H D S M M M m m m m u u u u u y y 9 9 9 9 9 9 9 y 7.t.q.7.=.1.@.n ^ x d J V ",
"0 0 0 B J d a g z c R. X7X4X;Xq.t.i.[ I I I I d.I P D S M M M m m m m u u u u u y y 9 9 9 9 9 9 9 9 #.p.i.q.7.&.,.3.] ^ W d d V ",
"p r * p G L k z z c %.8.9X9XqX<Xy.6.I I I I I I P H D M M M M m m m u u u u u y y y 9 9 9 9 9 9 9 i q.t.W.w.8.2.<.] { Q W Y e d ",
"p r 0 p Z L Q b c v %.1.W.eXrXtX<X[ I I I d.d.I H F S M M M m m m u u u u u u y y 9 9 9 9 9 9 9 y ,.y.u.w.w.8.6.3.] Q x V Y d a ",
"* r 0 p a _ Q ! c @.%.7.q.;XtXtXA.I I I I d.I H D D M M M m m m u u u u u u y y y 9 9 9 9 9 9 9 s p.p.w.w.1.1.6.5.] Q j a V V d ",
"0 * 0 t a ( W n v @.1.7.q.u.eX5XI I I I I I P H D S M M M m m m u u u u u u y y y 9 9 9 9 9 9 y 8.,X;XW.w.1.%.<.} ^ ~ a t Y V V ",
"r 0 * e j ( ! v @.1.7.7.q.p.>XB.I I I I I I H D D A M M m m m u u u u u u y y y 9 9 9 9 9 9 9 K p.>X/.Q.R.%.,.~ ^ ) Q d a R Y Z ",
"V a w e c x c v %.6.w.w.-X,X!.I I I I I I H D D S M M M m m m u u u u u y y y y 9 9 9 9 9 9 y w.;X>X/.E.8.2.<.~ n ~ Q Y V R T Z ",
"J V d g W n v #.2.!.!.-X,X4Xz.I I I I I P H D D M M M m m m u u u u u u y y y 9 9 9 9 9 9 y 3.<X>XQ.W.E.R.6.} ^ z j Q R T T T R ",
"a.R Q x ~ n n <.A.!.^.4X,XA.I I I I I I H D D S M M m m m m u u u u u y y y y 9 9 9 9 9 9 i ;X,X>XQ.R.E.~.5.} ^ l t d R E R T R ",
"a.h.( ~ ! n <.6.E.~.:X4X>Xf.I I I I I H F D D M M m m m m u u u u u u y y y 9 9 9 9 9 9 y 6.,X>X).W.R.~.A.} ^ ~ W t V T Y R T R ",
"a.h.` ] ^ ^ Z.A.!./.:X,XC.I I I I I H H D D S M M m m m m u u u u u y y y y 9 9 9 9 9 y B >X,X;XQ.E.E.E.5.] ] ~ Q V Y R V T R T ",
"g.h.` ] } C.A.Y.~./.,X/.h.d.I d.I I H D D D M M m m m m u u u u u u y y y 9 9 9 9 9 9 y F.,X>XW.W.!.~.Z.} ] ) Q Y V T R Z Z R R ",
"Y h.l.] | C.A.!.~.).>XN.I d.d.I I H F D D S M M m m m m u u u u u y y y y 9 9 9 9 9 y K ,X,X;XW.E.^.Y.Z.} ] Q Y R Y T R R T R R ",
"Y Q { | 5.Z.A.E.~.>XZ.P I I I I P H F D S M M m m m m u u u u u u y y y 9 9 9 9 9 9 y W.,X>XW.R.~.^.Y.Z.] ) Q T T R R R _ R R T ",
"_ ) ) } Z.Z.A.E././.H P d.I I I H D D D S M m m m m u u u u u u y y y y 9 9 9 9 9 y ' ,X,XQ.W.~./.Y.Y.| { Q T R Y R R j.E R R Y ",
"_ ` { } 5.Z.A.E./.(.P I d.I I P H D D S M M m m m m u u u u u y y y y 9 9 9 9 9 9 y >XeX,XQ.W. X^.Y.5.| { Q R E Z R ` j.Y R E l.",
"h.` l.} 5.Z.Y.~.(.J.I P I I I H D D S M M M m m m u u u u u u y y y 9 9 9 9 9 9 9 3.eXtX5XQ.4X X~.A.] ~ ` ( R E E E z.E V R x.x.",
"v.h._.Z.5.6.Y. X(.J.B.D I I I H D D S M M m m m u u u u u u y y y 9 9 9 9 9 9 9 s >XtXjX,X). X X XZ.{ ) ( R E E E j.j.T Z j.b.j.",
"`.c._.C.A.6.~.5X(.1XG.M.P I P H D S M M m m u u u u u u u y y y y 9 9 9 9 9 9 9 E.tXjXjXQ.5X X X^.^.x.` D.) R E j.D.E V R b.b.j.",
"I.I.L.C.^.Z.7XwX^.2X(.G.z.I H H H S M m m m u u u u u u y y y y 9 9 9 9 9 9 9 K eXzXxXfXwX7X7XT.A.T.`.j.D.) j.E D._.` Z b.n.z.z.",
"`.].P.C.|.|.7X5XW.6X6X6X2XV.I H D S M m m m u u u u u u y y y y 9 9 9 9 9 9 9 :XeXzXjXjXiX8X7XZ.Z.D.`._.b.` b.x.[.[.` z.K.n.c.k.",
"[.].`.D.D.8XaXwXwXrX6X2X6XqXJ.B.S m m m m u u u u u u u y y y 9 9 9 9 9 9 9 3.zXtXxXfXgXiXyX+XT.{ C.`.`.D.j.b.D.[.`.j.L.P.n.c.s.",
"OX[.`.`.L.+XiXaXaXwXrX>X2X6XrXqXG.U M m m u u u u u u y y y 9 9 9 9 9 9 9 i rXxXzXkXgXaXyXiX+X`.C.l.OX'.L.v.D.`.`.L.D.P.'.I.c.s.",
"oX%X].@X|.8X8XaXaXwXwX5X:X2X0X0XtX6XV.H u u u u u u u y y y 9 9 9 9 9 9 9 Z.vXvXxXkXgXaXyX8X+X.XL._.&X}.L.[.`.`.[.`.'.P.I.K.I.c.",
"].oX@X@X|.@XyXyXiXgX8X9X5X4X0X3X6XrXrX2XB.P m u u u u y y 9 9 9 9 9 9 9 i rXvXvXkXkXdXdXiX|.|.+X`.oX&X%X].OXoXOXoX%X'.'.n.v.L.I.",
"%X$X&X&X`.@XuX*X8XiXaXwX7XfXjXqX3X6X6XrXrX3XV.N y y u y 9 9 9 9 9 9 9 y !.vXvXkXkXkXaXiXyX+XD..XOX&X%XoX&X&X`.oX&X}.}.].k.c.v.I.",
"&XoX&X*X@XuXyXyX8X+X8XaX8XkXxXkXfXrX0X3X0XrX0XJ.U y y y 9 9 9 9 9 9 y K rXvXvXjXgXgXyXyX&XXX.XD.oX*X&XoX%X&X].[.&XoX{.'.v.a.v.I.",
"oXoXoX%X*X%X&XyX@X|.|.iXgXhXhXkXxXvXzXrX3X3X3X6X1XV.L u i 9 y y y y y 4XzXvXlXlXgXdX@XyXOX.XXX].].*X*X}.%X*XOX&X}.oXoXI.m.c.k.[.",
"n.oX&X].}.&XoX@X@X.X|.8XyXgXgXhXlXcXjXxXvXqX3X3X3X3X1X:XM.M.U U U 4.B.jXcXlXgXgXdXyX@XpX*X.XOX].OXOX&X}.&X=X*X*XoX[.].oXI.m.v.OX",
"k.[.&X%X].oX&X.X]..X|.8X@XiXgXaXkXlXkXcXcXvXzX0X6X3X3X2X3X1X1XJ.J.J.3XxXlXkX7XaXdXyX@X@X&X&X&XOXOXOXoX%X*X*X*X&XOX`.n.`.oXU.m.%X",
"n.[.OXOX%XoX%X*XoX].&XyX@XyXdXyXgXlXkXgXkXxXvXvXfXqXqXqX3X3X1XJ.J.J.qXhXhXgXwXdXyXyXyXoX].&X&X*X&XoX}.OX*X*X&X%XoXK.g.v.oX%X}.oX",
"].[.`.K.oX%XoX%X&XoX'.yXyXyXsXiXgXgXgXaXfXfXfXxXcXkXfXjXfXqXrX0X:X9XhXgXiX8XdXdXyX8XOX&X[.}.&X*X%X}.%X.XOX&X&X{.].L.a.c.v.OX&X&X",
"oXoX[.'.`.oX%XOX&X&X&X&X&XpXiXiXdXdXaXiXgX8X9X9XjXlXfXfXkXkXhXfXgXgXgXdXdX8X@XsX#X*X.XoX&XoXoX*X&X$X&X[.}.oX%X{.U.L.n.a.v.`.{.%X",
"`.oXoX{.].I.[.%XoX&X*X*X%XyXiXyXsXsXyXiXiX8X8X+X9XlXaXgXhXkXlXgXhXiXaXiXdXsX@X.X@X*X}.].*X*X&X%X%X}.%XI.[.OXoX'.oXI.L.c.k.oX].}.",
"[.].OX{.U.L.K.].oX&XoX&XoX*XpXyXpXyXyXyX|.|.8X8XyXgXgXgXgXgXgXgXgX@XyXyX8XyXyX[.OX*X&X{.&X*X=X&X&XU.%Xm.oX%X}.I.`.'.I.m.L.%X{.'.",
"[.OXoX'.oXI.L.K.].*X{.OX&XOX&XyXpXyXyX&X`.D.+XyXsXiXyXgXgXiXiXgXyX@XyXXX|._.XX@X&X%XoX&X&XoX*X=XoX].%X[.&XoX}.'.n.L..XI.oX&X%X].",
"oX%X}.I.`.'.I.m.].*X}.OX*X&XOX&XuXOX&X@X`.D.D.@XsXyXyXsXdXpXyXpX@XyXyXXX`.D.D.oX*X%XoX%X&XK.OX&X'.{.].%X*XoX.XU.m.k.].oX%X$XoX&X"
};
