/* XPM */
static char *bea6c7ee4a484938dd42d3668125b051EApXf8GoTq5ZBo3i[] = {
/* columns rows colors chars-per-pixel */
"64 64 213 2 ",
"   c #010200",
".  c #010B00",
"X  c #011301",
"o  c #091406",
"O  c #021B01",
"+  c #081D03",
"@  c #0D1E08",
"#  c #002400",
"$  c #0A2304",
"%  c #022B01",
"&  c #0B2B05",
"*  c #0E230A",
"=  c #0D2D08",
"-  c #10250B",
";  c #132C0C",
":  c #033401",
">  c #0C3305",
",  c #033C01",
"<  c #0D3B06",
"1  c #0C3309",
"2  c #0E3C0A",
"3  c #103606",
"4  c #113C06",
"5  c #13340C",
"6  c #133B0B",
"7  c #173710",
"8  c #183710",
"9  c #193A11",
"0  c #054403",
"q  c #0C4306",
"w  c #064B04",
"e  c #0A4C05",
"r  c #0D4409",
"t  c #0E4D09",
"y  c #124407",
"u  c #124B07",
"i  c #13440A",
"p  c #144C09",
"a  c #065104",
"s  c #0A5306",
"d  c #075905",
"f  c #0A5A06",
"g  c #0C5409",
"h  c #0D5B09",
"j  c #115207",
"k  c #115B07",
"l  c #145308",
"z  c #19540A",
"x  c #145B0A",
"c  c #1A5C0A",
"v  c #1D4412",
"b  c #1C4C13",
"n  c #145711",
"m  c #1A5313",
"M  c #1E5C14",
"N  c #214C14",
"B  c #235516",
"V  c #225E16",
"C  c #255419",
"Z  c #245C18",
"A  c #295C1B",
"S  c #0C6807",
"D  c #0E6409",
"F  c #0D6B09",
"G  c #106107",
"H  c #15630A",
"J  c #1C640A",
"K  c #156B0B",
"L  c #1D6A0B",
"P  c #0E760B",
"I  c #14720B",
"U  c #1A730B",
"Y  c #18740B",
"T  c #18750B",
"R  c #1A750B",
"E  c #19770B",
"W  c #14790D",
"Q  c #19790B",
"!  c #1C7B0B",
"~  c #1A7D0B",
"^  c #1A7F0C",
"/  c #156211",
"(  c #196414",
")  c #156B11",
"_  c #1B6C14",
"`  c #1E6B19",
"'  c #167311",
"]  c #1B7413",
"[  c #167B11",
"{  c #1B7C14",
"}  c #1D7219",
"|  c #1E7B19",
" . c #21670F",
".. c #206C0C",
"X. c #22730C",
"o. c #22790D",
"O. c #236715",
"+. c #2C651D",
"@. c #226D1A",
"#. c #2A6B1C",
"$. c #306A1F",
"%. c #257413",
"&. c #257A13",
"*. c #297C12",
"=. c #23741D",
"-. c #2C751C",
";. c #237C1C",
":. c #2B7A1C",
">. c #32771F",
",. c #316F20",
"<. c #267E20",
"1. c #297A23",
"2. c #337421",
"3. c #347B22",
"4. c #19800C",
"5. c #1B830C",
"6. c #1C820C",
"7. c #1B840C",
"8. c #178014",
"9. c #1B8215",
"0. c #1E8319",
"q. c #1F881B",
"w. c #218A0F",
"e. c #228414",
"r. c #2B8314",
"t. c #238D12",
"y. c #2E8A17",
"u. c #23851C",
"i. c #2D831A",
"p. c #248B1D",
"a. c #2C8C1B",
"s. c #32851E",
"d. c #318C19",
"f. c #269115",
"g. c #2B9217",
"h. c #2B941A",
"j. c #2E9A1C",
"k. c #34931E",
"l. c #329C1D",
"z. c #34A21E",
"x. c #35A91F",
"c. c #268321",
"v. c #2B8524",
"b. c #268C21",
"n. c #2B8C24",
"m. c #2F8C29",
"M. c #3A8326",
"N. c #348D23",
"B. c #398A26",
"V. c #318D29",
"C. c #3E8B29",
"Z. c #2C9325",
"A. c #2D9926",
"S. c #2E9429",
"D. c #2F9B29",
"F. c #339524",
"G. c #3B9325",
"H. c #349B23",
"J. c #3B9C23",
"K. c #33952B",
"L. c #3E9229",
"P. c #339B2C",
"I. c #3C9E2C",
"U. c #379730",
"Y. c #379B30",
"T. c #399D32",
"R. c #36A321",
"E. c #3AA524",
"W. c #37A821",
"Q. c #3CAB25",
"!. c #35A02B",
"~. c #3CA32B",
"^. c #3FAD29",
"/. c #3EB126",
"(. c #3FB128",
"). c #3CA434",
"_. c #3EA934",
"`. c #3FA738",
"'. c #409F27",
"]. c #41932B",
"[. c #439C2D",
"{. c #489F2F",
"}. c #40AB27",
"|. c #44A42B",
" X c #44A42C",
".X c #43AC2B",
"XX c #49AD2F",
"oX c #41B227",
"OX c #44B32B",
"+X c #49B42E",
"@X c #46B82D",
"#X c #49BA2E",
"$X c #45A430",
"%X c #4AA430",
"&X c #41A933",
"*X c #4BAB32",
"=X c #43AB3B",
"-X c #46B233",
";X c #4BB532",
":X c #47BB30",
">X c #4DBC32",
",X c #47B13E",
"<X c #49B33C",
"1X c #52B536",
"2X c #51BD35",
"3X c #54BD38",
"4X c #4FC034",
"5X c #53C236",
"6X c #56C439",
"7X c #59C63B",
"8X c #59C83C",
"9X c #47B140",
"0X c #49B341",
/* pixels */
"7.7.7.7.^ 7.7.7.E H E 7.7.~ Q 7.7.7.7.5.U Q 7.5.u < u x K K H K u q Q l E K Q K l E 7.x l H E 7.7.7.7.7.7.7.5.K Q 7.7.Q E 7.7.7.",
"E 5.7.^ H 5.7.^ x H 7.7.7.5.H k U 7.7.E K 5.5.5.H u q > < u E U K q u H Q l E y < E K l y u E 7.7.5.7.7.7.7.K E 5.5.K E ^ 7.7.7.",
"E E 7.K l 5.5.u q K 7.7.7.7.U H q K 6.l ] ^ 5.H l Q K < > < G 5.K i & p K y l < < E l l u l q K 7.l E 5.7.E l ~ 7.K l E 7.7.7.7.",
"Q x 5.y < ^ K l > > y x K ^ ~ K u q H ( F._ H u u ^ ^ j q q q I ^ m 5 2 j x < & > < q y H K u q Q l E K E l u 5.Q l k ^ 7.7.7.7.",
"E l k < y E l l x q & & q r E U K < q K Z.S.H < < E K l r r q q H r b i q k q & & + & < E U K q u H Q l H < < ^ k l x 7.7.7.7.7.",
"H K < & > < q l Q K q $ & $ l K H > < D W v.n.} g s r e x t q q < q r M i q % > $ + + $ x 5.K < & l K p l < r H u l E 7.7.7.7.7.",
"l H l > & + & u 5.U H < & $ $ l H $ > g D ) =.v.;.x 0 e G x < < t ( x ] %.z % $ $ $ $ $ & K E > + < l u y y < > r l 5.5.7.7.7.7.",
"> l < < $ + + & x 5.K < $ & & $ q $ & t h f x ( v.V.` g f f f : u <.;.{ p.;.p # % < q < $ & u $ + > < u u q > $ & k 7.l E 5.7.^ ",
"& l > + + $ $ $ & K E > + & > + + $ & & q f x x ` K.).=./ f s q q _ v.u.u.Z.<.r : 0 f k > $ $ + + $ $ < q > $ + & q Q l E E 7.K ",
"& x > + + > q < $ & u > & < & $ + + $ + $ x n.v.x ) U.=Xm./ f e 0 e <.v.u.p.Z.u.q , w D q > $ + + + + $ & $ + $ u q u H Q L 5.y ",
"$ > $ + + < x l > $ $ $ 4 y 4 3 & + + + r m.T.` g h K K.=XU._ w w 0 s v.S.S.Z.K.S.e , 0 g < $ + + + $ & + + + < H q & l e.c k < ",
"+ $ + $ $ & l E < > $ + + 3 y p 4 & + i V.T.` 1.=.H S H v.).U.} s w 0 / m.P.P.!.).p.q : w e $ + + + $ & + o + l Q > + p &.K < & ",
"o + + > & + < H H > $ + + + & z y 4 i 1.T.c.V.v._ s e 0 h ;.K.T.;.a 0 0 } K.T.T.`.`.] 0 , , > + + + + + + + + & x & $ M c H y & ",
"+ + + < & + < l H u $ $ + + $ < y p :.K.n.m.S.| f w , % : e _ K.T.;.s 0 e } P.).&X=X!.] 0 : % + + $ + + + $ & $ + $ 6 z > u & > ",
"& & $ + & $ > < H u < + + + + $ 3 =.V.S.n.K.] s 0 , : O O # : n v.T.;.g , g | P.`.=X,XP.' 0 : % > > $ + & y & + $ = v & & < $ + ",
"H u > $ + + & > H y & + + $ + = m v.S.Z.K.' w , : % # O O O X X r v.T.| s , e ;.P.=X,X,XP.I , : q q > > H H H $ $ b 5 + $ & $ + ",
"7.^ y & $ + & & H < $ $ & & $ 2 v.Z.S.S.) 0 : : # O O O O O X   . & v.U.] a 0 e 0.I.=X0X=XA.I , : q < > z ^ K < v N + + + $ + + ",
"5.U Q > & & $ $ > $ + & p y e c.Z.Z.p./ , : : # O # # O O X .       $ v.S.' a 0 w [ P.=X0X=XZ.I , : q < & K E > B 3 + + + + + + ",
"U H 5.U 4 4 $ + $ + $ q K G | K.Z.u.x , : % % # # # # O X .           1 ` { F w , w ' K.=X0X=Xp.K , < t & & u > B > $ + + + + + ",
"x x 5.E l y 4 > & > r K I I Z.Z.| x , % % % # # # # # X X             . > H F w , , w ) S.=X0X`.p.F e q r & & & 5 & $ $ + + + + ",
"z x ~ H H p 4 4 4 r l I W 9.u.) g , % % % # # # # # O X .               . : e w a 0 , 0 K n.=X0X).p.F w q < & & + $ $ > $ + + o ",
"p l z x H Q y 4 y p j K 9.| h 0 : : : # # # # # # # O X .                 o : f D f , , w F b.).=XI.p.K 0 < & $ + + $ l & + $ + ",
"p p y u H 5.K x l l h ] | H : : , 0 , # # # # # # O O X                   . $ ' [ P w : e F F { K.=X).p.F < > $ + + $ > $ & $ $ ",
"z y 4 4 y K 5.U x f K ) g : , , f f , # # % # # O O O .                   . & | p.P a , g { F f K Z.).I.p.e < & > $ + $ & 4 < > ",
"y y y y y y E Q l k G s , , 0 D D f , # # % # # O O X .                     & | b.P a , h { F f w K n.I.Z.] y 3 3 $ $ $ 4 y H U ",
"y 4 l x l y y H _ ( l q < t ' I S f , # # % # # # O X                       & 0.p.P a , / b.I f w D 0.K.K.' q 4 > > 3 > y y Q E ",
"y y z K H l y y p :.-.%._ ] I.u.F f , # # % # # # O X                       & 0.u.W a , ( S.' f w D { b.K.;.p 4 p y p c z z ~ H ",
"y y y H Q x p y y i -.G.h.p.0XK.I d , # # # # # O O X                       & 0.b.9.s , / S.I f w D [ | =.K.@.i z H H H J z z J ",
"l p 4 z U E l y y y y  .g.h.9XY.I a : # # # # # O O .                       & 0.S.p.g , ( S.K f w h ' K e v.K.@.c L U H J J y c ",
"z p 4 z H E H u y 4 y l ] Z.,XY.I w : # # # # # O X .                       & 9.S.q.g , ( n.K f w g ' ' w D v.V.%.J H z c J c z ",
"4 p y l l U H z y 4 y u H n.,XP.I w : # % # # # O X .                       % 9.P.0.f , ( S.K D 0 g ] ' e D H ;.%. .c p l c J c ",
"y 4 y p p K x p y 4 u j K n.0X).' w % # # # # O O X .                       : 9.I.9.s , / Z.K D 0 x | ' s D D K L J c z y L J J ",
"p y 4 y p K z y 4 u p j _ P.0X`.' w % # % # # O O X .                     . > 0.P.9.s , / Z.E K , ( u.' s D H K H ..J c z ..L L ",
"H l 4 y u l y y y H x k ] ).0X=X' w % # % # # O X X .                     . < 0.P.8.s , / Z.[ K , ` n.' e K K K x J L J c X...L ",
"E J z y c p y y x ! Q K 9.I.0X`.' w % # # # # O X X .                     . q 9.P.[ w : / Z.W I , @.n.] x E K K l u L ........X.",
"6.U L p c p p l U o.5.W e.`.0XP.I g % # # # # O O X .                     X q 9.P.[ w : ( D.W I 0 @.n.| ( K E K u p z X.X.X...X.",
"6.6.L J z p c H o.o.5.W u.`.,Xn.{ g % # # # # O O X .                     $ q 9.K.W w , ( K.W I 0 =.Z.y.l H K H J u J ....X...X.",
"7.6.X. .H H E ! o.o.5.E e.`.,XS.{ w % # # # # O O X .                   * $ q 0.D.W w , ( K.W I 0 @.F.u.e H ..J J c L X.J ..X...",
"6.6.o...L ! 6.o.o.X.Q E 9.I.9X!.' 0 % # # # O O O X .         o       o ; . q q.S.W w , ( D.[ P 0 =.I.] e c ..J L J ..X.L L X.X.",
"J ! o...E ! 6.! o.o.K E 9.K.<XI.K 0 % # # # O O O X .       * o       ; o . q p.D.P w , ( P.[ P g V.F.&.e c J J ..J ..X.X...X.X.",
"L J X.X.X.o.o.o.o.o.K K ] P.<XS.K 0 % # # # O O O X .     o ;   . o - -   . 2 p.D.P w , ( P.[ P ;.K.F.&.e c J J ..X.X.X.&.X.X...",
"o.X.L ..X.o.o.o.X...K U ] !.<Xp.F , # # # # O O O X .     ; o     v 2.*     2 b.S.P w 0 _ P.9.{ N.V.F.] e z L X.J X.X.r.&.X.X. .",
"o.X.X...X.o.! o.X...U Q a.H.=Xu.F , # # # # O O & X 9 v 8 -       C C 2.-   :.A.S.P s ( _ P.u.h.v.V.n.] t c ..X.L X.*.y. .X.X.i.",
"6.o.o.....X.o.o.X...E e.k.Z.=X{ K r O O # # O 3 & X o 2.].+.N ; 5 v 5 #.>.+ 2.A.P.P _ :.;.P.!.H.v.V.v._ e c ..X.! o.y.*.J X.d.d.",
"f.6.J.*. .J o.d.X.X.U j.j.Z.`.W D ( O.1 # # 1 6 O X o A 2.3.N.3.,.o - 8 2.#.#.A.!.I F. X;.~.~.E.I.V.u.K u c X.X.X.y.y...L r.k.r.",
"Q.t.E.r.r.J r.J.o.o.J.}.h.K.`.W D x V 3.i # 2.6 O X N 3.o ; B.|.~.b   8 3.J.1.A.~.j. X X` ^.^.H.K.&Xn.h i.J ..X.r.J.o.J X.k.k.r.",
"Q.W.l.e.k.X.|. Xo.d.G.;X>X-X-Xp.D t p -.s.m 2.= 3 = M.2.o . +. XJ.k.- o ].Q.N.!.F.OX3XXX~.OX-Xg.v.&X~.H s. .*.o.J.|.*.L k.l.y.y.",
"Q.^.z.t.E.J.XX'.%.J.J.J.+X>X:XR.J.x i b N.'.V & Z #.{.M.o 7 +.C.{.J.a.v %X.XN.^.H.OX2X;X+X:X>X9.v.I.^.k.:. .k.d.+X+X*.y.R.l.g.t.",
"+XoXW.h.g.+X2X+X}.|.J.d.H.>X>XQ.OX:.p b  X;X#.= L.[.].2.@ A A N 3. XE.l.1X>XI.>XOX6XXX2X@X#X+Xh.=.I..XQ.i.%.k.J.XXXXr.W.E.l.f.7.",
">XOXW.W.j.Q.>X>X@XOX|.*.F.<X>X+X.XR.:.M 2X2Xs.#.L.*X*X].M.3.A o 5 %X>X+X>X#X2X2X2X5X2X;X+X5XoXR.v.K.>XoXH.y.J.}..XE.J.E.oXQ.f.7.",
":X4X^.+XQ.>X+X5X:XOXQ.d.a.<X;XoX.XE.}.B.3X2XN.$X[.B.%X*XOX'.+.  - v ;X6X5X:X5X6X5X6X5X>X+X;X;X^.R.&X6XOXH.OX.X.X+X}.}.E.Q.R.Q.f.",
"oX#X2X>XQ.;X2X:X#X5X^.R.F.<X2XoX}. X;X#X2X5X*X2X*X;X[.;X+X}.k.b . 8 ].+X2X#X5X7X6X6X>X2X;XE.&X;XQ.:X6X2X.X2X>X2X>X5XoXoXl.g.W.Q.",
"5X4X5X5XE.>X5X#X:X>X:XOXR.2X6XOXJ.2X6X5X5X5X2X2X[.*X>X;XE.2XE.k.; 9 1X}..X>X5X6X6X7X>X>X>XOX_..X;X5X5X#X5X5X.X>X6X#X#X+Xt.f.h.Q.",
"6X@X6X7X2X6X5X>X#XE.+X>X/.5X6X5X+X2X7X8X6X6X>X2X2.*X6X>XG.{.L.|.d.].3XOXG.6X7X5X5X7X+X>X:XOX-XH.XX7X5X:X5X6XOX#X6X:X@XoXj.7.h.Q.",
"#X>X#X>X6X>X>X5XoXE.l.>X5X6X5X5X5X6X2X7X8X5X5X7X X3X2X>XXX2.$.*X}.6X7X2X*X7X7X8X6X6XoX>XOX.X;X^.I.6X6X#X5X7X2X5X#X:X>XQ.x.f.t.+X",
"l.:X5XoX@X5X#X#X@XW.R..X@X5X5X5X6X7X>X>X6X5X>X:X2X6X;X3X+XB.9 *X3X7X6X>X6X6X;X7X6X:X@X5X2XoX>XoX>X;X5X#X6X8X7X7X:X+XOX:X^.z.j.2X",
"t.+X6X5XOX:X5XoX/.^.E.>XoX>X6X>X6X8X5X6X5X5X5XoX#X5X%X6XOXXX+.C.6X8X5X6X6X6Xs.>X6X>XoX:X>X2X>X>X>X2X:X5X7X7X7X6X2X.Xl..X:X(.x.5X",
"l.+X2X2X5X:X>X5XOXQ.#X5X@X#X6X@X6X8X6X#X>X5X6X5X@X#X;X7X#X+X$X*X1X7X8X5X5X6X X5X>X>X5X+X/.5X2X6X5X>X#X2X7X8X6X5X>XR.w.h.>X5X:X>X",
"OX+X.XR.:X5X>X5X5X+XQ.5X5X>X6X>X8X8X6X:X:X+X+X6X6X>XoX5X6X>X6X*X3X3X7X5X@XoX5X6X:X;X@X5XOX#X6X7X5X#X5X;X2X6X6X@X+XW.7.f.j.2X6X5X",
">X>X+XoX.X:X5X>X5X6X>X>X>X7X5X5X7X5X>X>X6X/.W.W.2X7XOX#X4X7X7X*X3X6X5X>X5XoX/.6X-X>XoX:X6X>X>X6X6X4X5XOX#X>X5X@X/.W.l.7.h..X#X5X",
".X>X>X@X+XQ.+X5X:X6X6X6X:X6X6X5X7X6X>X>X>XoX^.z.Q.8X#X>X6X6X8X*X7X#X>X>X3X5X@X^..X2XOXQ.6X8X6X5X6X#X2X^.+X2X:XoX>XQ.W.f.t.>XoX#X",
"+X+X2X@X/.W.R.OX>X6X#X6X:X5X7X5X7X5X5X>XW.W.;XQ.:X6X6X5X6X6X8X7X6X/.>X X[.;X2XQ.:X5X2X.X5X7X8X6X5X/.4Xl.>X5X#X^..XoX^.z.W.5XOXoX",
"+X2X:XoX>XQ.W.R.OX7XOX>X5X>X5X6X7X>X2X:Xz.t.OX>X5X>X>X7X7X>X5X8X:XoX2XJ.:.-.|.;X5X>X#X5X2X>X8X8X:XoX6X+X6X>X#XoXl.W.;XQ.:X6X5X+X",
">X5X#X^..XoX^.z.+X7X#X>X8X6X>X5X7X#X>X@XW.h.h.#X6X5X:X5X7X6X5X6XoX>X;XQ.s.M _ .X6X5X:X5X6Xl.>X6XoX@XoX5X7X:X;X/.z.t.OX>X5X>X:X5X"
};
