/* XPM */
static char *a7865534f4174463ce7a4762e0383129HQkWJNIhYhfIRS9j[] = {
/* columns rows colors chars-per-pixel */
"64 64 136 2 ",
"   c #071702",
".  c #071903",
"X  c #081D03",
"o  c #0A2304",
"O  c #0C2B05",
"+  c #0F2B08",
"@  c #0E3305",
"#  c #0E3B06",
"$  c #103606",
"%  c #123D06",
"&  c #13340B",
"*  c #173D0D",
"=  c #0F4206",
"-  c #134307",
";  c #104607",
":  c #144507",
">  c #114907",
",  c #114B07",
"<  c #144A07",
"1  c #114F07",
"2  c #154608",
"3  c #114F08",
"4  c #164D08",
"5  c #194C0A",
"6  c #125308",
"7  c #165308",
"8  c #125408",
"9  c #175609",
"0  c #195409",
"q  c #1B500F",
"w  c #135808",
"e  c #145B09",
"r  c #145D09",
"t  c #1B5C0A",
"y  c #185A0C",
"u  c #1A5E0E",
"i  c #1C4511",
"p  c #1E4B12",
"a  c #1F5810",
"s  c #1F5D12",
"d  c #204B12",
"f  c #235516",
"g  c #215C12",
"h  c #156109",
"j  c #166109",
"k  c #166609",
"l  c #1D640A",
"z  c #16680A",
"x  c #17680A",
"c  c #176B0B",
"v  c #176F0A",
"b  c #176F0B",
"n  c #1D6A0B",
"m  c #17700A",
"M  c #18710A",
"N  c #1B740B",
"B  c #19770B",
"V  c #1A770B",
"C  c #19790B",
"Z  c #1A7E0B",
"A  c #1A7F0C",
"S  c #1C7C0C",
"D  c #21670E",
"F  c #216D0B",
"G  c #22730C",
"H  c #227A0D",
"J  c #246313",
"K  c #256B13",
"L  c #296C17",
"P  c #296D18",
"I  c #267411",
"U  c #287613",
"Y  c #267A11",
"T  c #247B14",
"R  c #2A7C13",
"E  c #2C721A",
"W  c #2D7819",
"Q  c #327B1D",
"!  c #1B830C",
"~  c #1C820C",
"^  c #1B840C",
"/  c #218A0F",
"(  c #238213",
")  c #248411",
"_  c #2C8315",
"`  c #248C12",
"'  c #2C8A16",
"]  c #2F8318",
"[  c #2F8C18",
"{  c #308816",
"}  c #33851D",
"|  c #328C1A",
" . c #269115",
".. c #2B9117",
"X. c #2B9519",
"o. c #2E9A1B",
"O. c #34931D",
"+. c #38961F",
"@. c #339C1D",
"#. c #35A21E",
"$. c #35A81E",
"%. c #378621",
"&. c #358B21",
"*. c #388921",
"=. c #3A9522",
"-. c #369C20",
";. c #3C9B23",
":. c #3D9528",
">. c #3F9828",
",. c #37A421",
"<. c #3BA423",
"1. c #37A821",
"2. c #3DAB25",
"3. c #3FAE28",
"4. c #3EB126",
"5. c #3FB128",
"6. c #409F26",
"7. c #41A326",
"8. c #40AD27",
"9. c #43A429",
"0. c #43AC2A",
"q. c #4AAF2E",
"w. c #41B227",
"e. c #44B32B",
"r. c #49B42E",
"t. c #46B82D",
"y. c #49BA2E",
"u. c #4BB630",
"i. c #47BB30",
"p. c #4DBC32",
"a. c #51BE34",
"s. c #4FC033",
"d. c #53C236",
"f. c #56C439",
"g. c #59C63B",
"h. c #59C83C",
/* pixels */
"^ ^ ^ ^ A ^ ^ ^ B h B ^ ^ Z C ^ ^ ^ ^ ! M C ^ A , # 1 r v z h v 1 = C 8 B v C z 6 B ^ r 8 k m ^ ^ ^ ^ ^ ^ ^ ! v C ^ ^ C B ^ ^ ^ ",
"B ! ^ A k ! ^ A r h ^ ^ ^ ! k w M ^ ^ B v ! ! ! h 1 = @ # , B M z = , h C 6 B ; # B z 8 ; , m ^ ^ ! ^ ^ ^ ^ v m ^ ! v B A ^ ^ ^ ",
"B m ^ z 6 ! ! , = v ^ ^ ^ ^ M h = v ! , v ! ^ k 6 C v # o o r ! z = O 6 v ; 8 # # B 8 6 1 8 = v ^ 8 B ! ^ B 8 Z ^ v 8 B ^ ^ ^ ^ ",
"C r ! ; # A z 6 @ @ ; r v A Z v 1 = k , B m B 1 , A A 1 O o O v C @ X # 8 h # O @ # = ; h v 1 = C 8 B v B 6 , ! C 6 w A ^ ^ ^ ^ ",
"B 6 w # ; B 6 6 r = O O = = B M z # @ e C w r # # ! z 6 # O O O r O X # ; h ; O O X O # B M z = , h C 6 h # # A w 6 r ^ ^ ^ ^ ^ ",
"k z # O @ # = 8 C z = o O o 6 v k O o 3 B # # # , C 8 8 r = O o X o X O @ , O @ o X X o r ! z # O 6 v 3 8 # = k , 8 m ^ ^ ^ ^ ^ ",
"6 k 6 @ O X O 1 ! M k # O o o 6 h o X # 8 ; O O @ # = 8 C z O X o X X o O # o X X o o o O v B @ X # 6 , ; ; # @ = 8 ! ! ^ ^ ^ ^ ",
"@ 6 # # o X X O r ! z # o O O o = o o # # = ; @ O X O 1 ! M h o X X . X o O o X . O @ # o O , o X @ # , , = @ o O w ^ 8 B ! ^ A ",
"O 8 @ X X o o o O v B @ X O @ X X o O o o # # @ o X X O w ! z # X X . X X o X X X O 6 6 O o o X X o o # = @ o X O = C 8 B m ^ z ",
"O e @ X X @ = # o O , @ O # O o X X o . X # @ X X o o o o z B O X o X . . X X X X o 6 k @ @ o . X X X o O o X o 1 = , h C n ! ; ",
"o @ o X X # r 6 @ o o o % : % $ O X X   X @ O X X @ = @ o O , o X O o X . . X X X X # # 8 @ o X . X o O X . X # k = O 6 ( u w # ",
". o X o o O 6 B # @ o X X $ - 4 % O . . X o X X X @ r @ o o o X X X X X X X X X X X @ @ e = o X X . o O X   . 6 C @ X 4 T z # O ",
"  . X @ O X # k h @ o X . X O 9 ; % O . . X . X O o # # O @ X . X X . X X X . . o X o @ r # O X X X X X X X X O r O o s y k ; O ",
"X . X # O X # 6 h 1 o o . . o # - - - X   X . o O X o O @ O X X . X X o X . . X X X o O 8 O o X X o X X X o O o X o * q @ , O @ ",
"O O o X O o @ # k 1 # X . X X o O - - . X X . O o X O O $ o X X X . X o X X   X X X o o - o X X X o X X O - O X o + i O O # o X ",
"h , @ o X X O @ h ; O X X o X o o - 9 X o o o o X X o O O O o . O o X X X o X X o O o o o X X X o . X O z h h o o p & X o O o X ",
"^ A ; O X X O O h # o o O O o o O 3 h O X O @ O O o o o o O @ X O o o X o O @ X O O o o X X X o o . X O 9 A z # i d X X X o X X ",
"! M C @ O O o o @ o X O 3 ; @ ; k v ! @ o O O @ $ @ @ X o O @ O o X O o @ % O O O @ @ X X X o X X o o O O v B @ f & X . . X X X ",
"M k ! M % % o X o X o # v 9 r C r B ! C @ @ X o @ $ $ o X o $ $ $ o @ O $ % O @ O O O O o o @ o X @ - % O O , @ f @ o X . . X X ",
"r e ! B 7 - % @ O O # k B h e M r C B C 9 % o X O % $ @ o X % % % @ O $ % % $ ; @ O o O @ @ O o o # 7 , @ o O O & O o o X X X X ",
"9 r Z z z 3 % % $ @ ; C C M 9 7 z Z z z 9 < # o O $ % $ @ o % % , % O @ % % % - % o o o @ @ O o @ @ ; 7 # @ O O X o o @ o X .   ",
"4 7 9 e z C ; % % - - k B M 4 - h C e e 9 r 6 @ O o @ % $ @ % - ; ; @ % $ % % % % $ o o @ @ O @ $ O - 4 r % O o . X o 8 O X o X ",
"4 < - 2 h ! v e 7 < - - h v : - 9 z r 4 4 7 9 - @ O o % % % % % ; - % % % % % % % - @ O % % @ % # @ - , < ; @ o X . o @ o O o o ",
"9 : % % ; z ! M 9 - < ; - e 4 5 9 9 e r 4 < - ; 7 , @ O % % % % - - % % % % % % : % % - - % $ $ @ @ % % - - % O @ o X o O % # @ ",
"- - - 2 - ; B C 4 % 2 7 - - 2 J 2 2 9 9 7 : % % ; k ; @ $ % % % % - % - % % % % - ; - % - - % % $ @ % % % % - $ $ o o o % - h M ",
"- % 7 e 7 ; ; h K L l < : - % g % - 9 9 - - - 2 - - v # % % % % % % - - - % - 4 h 7 4 - % - - % % % % % % - : % @ @ $ @ : ; C B ",
"- - 9 v z 7 - - < %.:.&.W J - 5 % - 9 7 - % 4 e 4 - ; 9 - % $ % % % % - - - 4 t 9 z 7 : - % - - % % % % % % : % 4 ; 4 t 9 9 Z z ",
": ; ; h C e 4 - - 2 Q >.<.&.P % % 2 7 : - < y z 4 : - - - - % % % - % % % 4 0 7 7 v r : - % % : - 2 % < 4 - : % 9 k z h l 0 9 l ",
"7 4 % 9 M B 7 : - - 2 J <.-.-.P % 2 : % - 2 K h e < 4 : - - - % % : - % - t 0 ; < v 9 4 - % - : 4 2 % - t t t 0 t z B h l l : t ",
"9 4 % 9 k B h 2 : % - 5 K ;.-.2.E q % % - < a 0 l 0 : t < % - - 0 : % % 0 t : % 2 z 0 t < % : < 4 - - 4 0 t l l l l h 7 t l t 0 ",
"% < - 7 7 M h 9 ; % - 2 5 L ;.@.*.:.} E J < 5 0 t l : t < : - 0 t - % t l 0 - % - e 7 0 t < ; t 4 4 4 t t 4 2 l l l h < 7 t l t ",
"; % - < 4 v r < - % : : : < } ;.< E :.;.&.P - 4 0 l t 4 % 0 - l l % 4 l G F t 0 4 2 : 4 t l 4 t 7 B n n l : : t F l t 0 2 n l l ",
"< - % - 4 v 9 - % 2 4 : : 4 n ;.< 2 g :.-.-.E ; 4 t l 0 5 l l n l - t n l F F l l l < < 0 l l 0 < B H H n % 4 t l F l t 0 F n n ",
"h 7 % - 2 7 : - ; z r 9 t B S ~ 7 : 5 g :.@.@.4 2 n l t 5 l G G F l l l 0 l F D l F t 7 t F F t t F H H l q t t 0 l F l t G F n ",
"B l 0 ; t 4 - : e S C M A ~ ~ ~ Z 4 ; 0 W ;.@.t 0 F n t t l l G G F F l 7 t l F F l l t l H G n n F G G U F l t : 2 n G F F F G ",
"~ B n 4 t < 5 7 B S ^ ^ S H ~ ^ ^ T 7 < 0 } >.l l F F l F n n F G F l l z 0 l F l F l l F H G F G F F Y ] D F l : < 0 F G G F G ",
"~ ~ n l 0 < t h H H ^ ~ S H H S ' ` v e 4 t 9.F F l F F H H F F F F F l l D F G l l F F F G G G H G F ] U F l l l : l F F G F G ",
"^ ~ B l h h B S H H ~ S S S H Y ] H H z 7 7 l G H G F G H H G G F F G F U D G H F l F H G G G F G B R ] F n F l l t n G l F G F ",
"~ ~ H n n S ~ H H H H H S ~ ~ ' Y n G S h t F F G G F F H H H Y F n n Y ] l F H G F G H H H G l G H ' H F F F l n l F G n l G G ",
"l S H F B S ~ H H H F G S ^ ' ' H H n n S B G G l F F l l H ] Y F l l ] Y H G G F G H G H H F l H | ) U F F l l F l F H G F G G ",
"n l H G B H S H H H F n n ) X.~ H n H n n H H G l F F F l I ' G H K U I F H H G F G H H H G l F R | ] Y F F l l F G G G U G G F ",
"H G n F H H S H G F n H n ] ` ~ H n G H F F H G F F F H H R F F G | ;.R F G H H F F H H H F n R } R ' H H n F G l G H _ U G H D ",
"H H G F G H S H G n B H [ ] n S H F B H H H G H U G ] | | ] l l G +.=.<.' F ;.R l G H | H F G O.| R F G H F F G n H R ' D F H ] ",
"~ H H F F H H H G F B ` O.) n F H Y H H H H H ] I G n 6.r.;.O.] ] | ' ;.<.R ;.R R H | ;.{ G | =.| ] l l G G F H S H ' Y l G | | ",
" .~ ;.R D l H | H G G O.o.H H H G | +._ S H ) ] F H H =.7.9.2.<.7.I R | 9.<.| I | H 9.u.' | =.6.;.U G F F F H H H ' ' F n ) O.) ",
"2.` ;.) ] l ] ;.H H ;.9...~ H H G R | <.' H 7.R D n O.9.U ] 9.e.0.| G | 9.3.O.U ;.;.r.r.U ;.;.;.=.=.R H =.U G H ) ;.H l H O.O._ ",
"2.1.@.) O.H 7.9.H | =.u.u.2.@.' H G ] ;.<.| 6.U ] I 7.9.H H ;.u.2.#.' R r.w.<.| ..r.a.r.9.7.7.| ] =.<.R ;.U ] H ;.7.R n O.+.' ' ",
"2.3.#.` <.;.0.6.I ;.;.;.0.u.w.<.0.I ] | 8.r.O.Y +.;.u.9.H | =.q.u.3.#.O.a.e.<.;.O.r.a.p.r.r.0.R _ [ <.;.| R O.| q.r.R ' ,.@...` ",
"r.w.1.X.X.r.a.r.0.7.;.| | 0.y.2.r.O.' | u.u.;.` r.r.r.7.I ;.;.O.0.u.0.$.d.d.0.r.9.f.r.a.t.y.0.| H [ 9.3.O.) +.;.q.0._ 1.<.@. .^ ",
"p.e.1.1.o.2.u.p.t.e.9.Y ' O.0.y.0.1.;.O.d.d.<.,.e.a.a.r.0.7.=.H [ u.d.u.p.i.a.u.a.d.a.u.y.d.3.,.' ) u.w.<.O.<.0.q.<.;.<.w.2. .^ ",
"i.s.3.r.2.u.r.d.i.e.2.O.H [ 9.w.e.3.w.9.g.d.3.u.u.e.u.p.t.e.;.G _ O.a.f.d.i.d.f.d.f.f.p.u.u.0.8.#.<.d.t.1.r.q.q.r.0.8.<.2.,.2. .",
"w.y.a.u.2.u.a.u.y.d.3.,.' ' u.w.0.r.u.u.d.f.i.d.p.d.u.a.t.w.,.| H | r.y.d.u.d.g.d.g.p.d.p.1.<.u.3.u.f.d.r.a.u.a.u.d.w.w.@...1.2.",
"d.s.d.d.<.u.f.y.u.u.u.e.#.r.f.e.1.f.h.d.d.f.a.d.u.p.p.u.w.d.3.,.' | a.w.y.d.f.f.f.g.p.a.p.e.X.0.p.d.d.p.d.d.0.u.f.y.y.r.`  .X.2.",
"f.t.f.g.a.f.d.p.y.<.r.p.3.d.f.d.r.d.g.h.f.f.p.d.2.p.f.p.w.u.e.e.#.r.f.e.0.f.g.d.d.g.y.p.u.e.0.@.r.g.d.i.d.f.e.r.f.u.t.w.o.~ X.2.",
"y.p.y.p.f.p.p.d.w.<.@.u.d.d.d.d.d.f.a.g.h.d.d.h.u.f.d.s.p.8.<.a.w.f.g.d.p.g.h.h.f.f.w.d.t.8.r.w.e.f.f.y.d.g.a.d.y.i.p.2.$. .` r.",
"@.u.d.w.t.d.y.y.t.1.,.e.t.d.f.d.f.g.u.p.g.d.p.u.d.g.p.f.t.0.X.a.f.g.f.s.g.g.a.g.d.i.t.f.d.e.p.e.a.p.d.y.f.h.g.g.u.r.e.u.3.#.o.a.",
"` r.f.f.e.i.d.w.4.3.<.u.w.p.f.p.f.h.d.f.d.d.d.w.y.f.u.g.t.y.,.e.f.h.f.f.f.g.1.a.f.p.w.u.p.d.a.p.a.d.u.d.g.g.g.f.a.0.@.0.u.5.$.d.",
"@.r.a.a.d.u.p.f.e.2.y.d.t.y.f.t.f.h.f.y.p.d.f.f.t.y.p.h.y.p.u.a.f.g.h.d.d.f.r.f.p.p.d.r.4.d.d.f.d.p.y.a.g.h.f.d.u.,./ X.u.d.u.p.",
"e.r.0.,.u.d.p.d.d.r.2.d.d.p.f.p.h.h.f.u.u.r.r.f.f.u.w.d.f.s.g.a.f.f.g.d.t.w.d.g.i.u.t.d.e.y.f.g.d.y.d.u.a.f.f.t.r.1.~  .o.a.f.d.",
"u.p.r.w.0.u.d.p.d.f.p.p.p.g.d.d.g.d.p.p.f.4.1.1.a.g.e.y.s.g.g.p.f.f.d.p.d.w.4.f.u.a.w.u.f.p.p.f.f.s.d.r.y.p.d.t.4.1.@.~ X.0.t.d.",
"0.u.p.t.r.2.r.d.i.f.f.f.i.f.f.d.g.f.p.u.u.w.8.#.2.h.y.p.f.f.h.a.g.y.p.p.f.f.y.3.y.d.e.w.f.h.f.d.f.y.a.3.r.d.u.w.p.2.1. .` u.w.y.",
"r.r.a.t.4.1.,.e.p.f.t.f.i.d.g.d.g.d.d.u.1.1.u.2.i.f.f.d.f.f.h.g.f.4.p.y.u.a.d.3.i.f.d.r.f.g.h.f.d.4.d.#.u.f.y.3.0.w.3.#.1.d.e.w.",
"r.a.u.w.p.2.1.,.e.g.t.p.d.p.d.f.g.s.d.u.#.` e.p.d.s.s.g.g.p.a.h.i.w.d.4.1.,.e.p.d.s.i.d.d.u.h.h.i.w.f.r.f.p.y.w.@.1.u.2.i.f.d.r.",
"u.f.y.3.0.w.3.#.r.g.y.p.f.f.p.d.h.y.p.t.1.X.X.y.f.d.i.d.g.d.d.f.w.p.p.4.1.X.X.y.f.d.i.d.f.,.a.f.w.t.w.d.g.u.u.4.#.` e.p.d.p.i.d."
};
