/* XPM */
static char *_7caa74e7d444944f7a3c91527f3cf4a6sjFC0hZ3cRNoVD8[] = {
/* columns rows colors chars-per-pixel */
"64 64 210 2 ",
"   c #010201",
".  c #030A01",
"X  c #090E06",
"o  c #0B0B0B",
"O  c #071602",
"+  c #091406",
"@  c #071903",
"#  c #081D03",
"$  c #0D190A",
"%  c #10150E",
"&  c #141414",
"*  c #161D14",
"=  c #1A1A1A",
"-  c #0A2304",
";  c #0C2B05",
":  c #0E2509",
">  c #11250B",
",  c #132C0C",
"<  c #0E3305",
"1  c #0E3B06",
"2  c #103606",
"3  c #123C06",
"4  c #14340C",
"5  c #173C0D",
"6  c #1B2718",
"7  c #193512",
"8  c #1C3B13",
"9  c #223C1B",
"0  c #232423",
"q  c #292A29",
"w  c #2A3128",
"e  c #343534",
"r  c #3B3B3B",
"t  c #0F4206",
"y  c #134307",
"u  c #104607",
"i  c #114A07",
"p  c #144907",
"a  c #114D07",
"s  c #154608",
"d  c #144C08",
"f  c #194C0B",
"g  c #125208",
"h  c #125408",
"j  c #155408",
"k  c #19540A",
"l  c #135908",
"z  c #145D09",
"x  c #1A5C0A",
"c  c #1E4812",
"v  c #1F5D12",
"b  c #214A15",
"n  c #25481C",
"m  c #225415",
"M  c #225C14",
"N  c #26571A",
"B  c #295C1B",
"V  c #156109",
"C  c #16660A",
"Z  c #1C640A",
"A  c #16680A",
"S  c #176B0A",
"D  c #176E0A",
"F  c #1C6A0B",
"G  c #17700A",
"H  c #1A730B",
"J  c #19760B",
"K  c #197A0B",
"L  c #1A7B0B",
"P  c #1A7F0C",
"I  c #21670E",
"U  c #216D0C",
"Y  c #22730C",
"T  c #23790D",
"R  c #266914",
"E  c #2B641D",
"W  c #2D6C1D",
"Q  c #267411",
"!  c #297C12",
"~  c #297816",
"^  c #30751E",
"/  c #317C1E",
"(  c #325B27",
")  c #3A4536",
"_  c #3A5533",
"`  c #316B23",
"'  c #337523",
"]  c #367C24",
"[  c #387D25",
"{  c #3C792A",
"}  c #40453F",
"|  c #447737",
" . c #434443",
".. c gray30",
"X. c #4D514B",
"o. c #545554",
"O. c #5C5C5C",
"+. c #55734D",
"@. c #627B5B",
"#. c #6D6D6D",
"$. c #787878",
"%. c #1B830C",
"&. c #1C830C",
"*. c #1B840C",
"=. c #218A0F",
"-. c #2B8314",
";. c #2A8615",
":. c #238C12",
">. c #2D8A16",
",. c #33801F",
"<. c #328C1A",
"1. c #269115",
"2. c #2B9519",
"3. c #2D971A",
"4. c #34931D",
"5. c #39971F",
"6. c #329C1D",
"7. c #34A21E",
"8. c #35A91F",
"9. c #398724",
"0. c #398D25",
"q. c #379722",
"w. c #3A9423",
"e. c #359C20",
"r. c #3B9B23",
"t. c #3E9629",
"y. c #3F9A28",
"u. c #37A321",
"i. c #3BA424",
"p. c #37A821",
"a. c #3CAB25",
"s. c #3FA528",
"d. c #3FAE28",
"f. c #3EB127",
"g. c #3FB128",
"h. c #418F2B",
"j. c #419F27",
"k. c #41942B",
"l. c #449C2C",
"z. c #40A326",
"x. c #40AD27",
"c. c #44A32C",
"v. c #48A42F",
"b. c #43AC2A",
"n. c #49AC2F",
"m. c #41B227",
"M. c #44B32B",
"N. c #49B42E",
"B. c #46B82D",
"V. c #49BA2E",
"C. c #49A631",
"Z. c #4BAB32",
"A. c #51AA38",
"S. c #4BB531",
"D. c #47B830",
"F. c #4DBC32",
"G. c #51B535",
"H. c #51BE35",
"J. c #52B438",
"K. c #54BB39",
"L. c #4FC033",
"P. c #53C236",
"I. c #56C439",
"U. c #59C63B",
"Y. c #59C83B",
"T. c #558C48",
"R. c #67965A",
"E. c #5FAA4A",
"W. c #68B356",
"Q. c #74876F",
"!. c #6C9862",
"~. c #7A9474",
"^. c #75A76A",
"/. c #7BB26C",
"(. c #70C759",
"). c #7BC369",
"_. c #839D7D",
"`. c #84A87B",
"'. c #84C572",
"]. c #89C679",
"[. c #848684",
"{. c #8C8D8B",
"}. c #8A9986",
"|. c #939493",
" X c #9C9E9C",
".X c #8BA585",
"XX c #92AC8C",
"oX c #94B58B",
"OX c #9BAA98",
"+X c #A3BE9C",
"@X c #A6A9A5",
"#X c #AAB8A7",
"$X c #ADB3AC",
"%X c #B1BAAE",
"&X c #B3B6B3",
"*X c #B4BBB3",
"=X c #B9BDB7",
"-X c #BBBDBB",
";X c #99C58D",
":X c #9CC592",
">X c #A0C496",
",X c #A5C59C",
"<X c #AAC5A3",
"1X c #AEC4A9",
"2X c #B2C5AD",
"3X c #B6C4B3",
"4X c #B9C4B6",
"5X c #BDC1BD",
"6X c #C0C2BF",
"7X c #C3C4C3",
/* pixels */
"*.*.*.*.P *.*.*.J V J *.*.P K *.*.*.*.%.G K *.%.i 1 a z D A V D a t K h J D K A g J *.z h C G *.*.*.*.*.*.*.%.D K *.*.K J *.*.*.",
"J %.*.P C %.*.P z V *.*.*.%.C l G *.*.J D %.%.%.V a t < 1 i J G A t i V K g J u 1 J A h u i G *.*.%.*.*.*.*.D G *.%.D J P *.*.*.",
"J G *.A g %.%.i t D *.*.*.*.G V t D %.i D %.*.C g K D 1 - - z %.A t ; g D u h 1 1 J h g a h t D *.h J %.*.J h P *.D h J *.*.*.*.",
"K z %.u 1 P A g < < u z D P P D a t C i J G J a i P P a ; - ; D K < # 1 h V 1 ; < 1 t u V D a t K h J D J g i %.K g l P *.*.*.*.",
"J g l 1 u J g g z t ; ; t t J G A 1 < l K l z 1 1 %.A g 1 ; ; ; z ; # 1 u V u ; ; # ; 1 J G A t i V K g V 1 1 P l g z *.*.*.*.*.",
"C A 1 ; < 1 t h K A t - ; - g D C ; - a J 1 1 1 i K h h z t ; - # - # ; < i ; < - # # - z %.A 1 ; g D a h 1 t C i h G *.*.*.*.*.",
"g C g < ; # ; a %.G C 1 ; - - g V - # 1 h u ; ; < 1 t h K A ; # - # # - ; 1 - # # - - - ; D J < # 1 g i u u 1 < t h %.%.*.*.*.*.",
"< g 1 1 - # # ; z %.A 1 - ; ; - t - - 1 1 t u < ; # ; a %.G V - # # @ # - ; - # @ ; < 1 - ; i - # < 1 i i t < - ; l *.h J %.*.P ",
"; h < # # - - - ; D J < # ; < # # - ; - - 1 1 < - # # ; l %.A 1 # # @ # # - # # # ; g g ; - - # # - - 1 t < - # ; t K h J G *.A ",
"; l < # # < t 1 - ; i < ; 1 ; - # # - @ # 1 < # # - - - - A J ; # - # @ @ # # # - - g C < < - @ # # # - ; - - - a t i V K F %.u ",
"- < - # # 1 z g < - - - 3 s 3 2 ; # # O # < ; # # < t < - ; i - # ; - # @ @ # # # # 1 1 h < - # @ # - ; # @ # 1 C t ; g ;.x l 1 ",
"@ - # - - ; g J 1 < - # # 2 y d 3 ; @ @ # - # # # < z < - - - # # # # # # # # # # # < < l t - # # @ - ; # O @ g K < # d ! A 1 ; ",
"O @ # < ; # 1 C V < - # @ # ; j u 3 ; @ @ # @ # ; - 1 1 ; < # @ # # @ # # # @ @ - # - < z 1 ; # # # # # # # # ; z ; - v x C u ; ",
"# @ # 1 ; # 1 g V a - - @ @ - 1 y y y # O # @ - ; # - ; < ; # # @ # # - # @ @ # # # - ; h ; - # # - # # # - ; - # - 5 k < i ; < ",
"; ; - # ; - < 1 C a 1 # @ # # - ; y y @ # # @ ; - # ; ; 2 - # # # @ # - # # O # # # - - y - # # # - # # ; y ; # - ; c ; ; 1 - # ",
"V i < - # # ; < V u ; # # - # - - y j # - - - - # # - ; ; ; - @ ; - # # # - # # - ; - - - # # # - @ # ; A V V - - c 4 # - ; - # ",
"*.P u ; - # ; ; V 1 - - ; ; - - ; a V ; # ; < ; ; - - - - ; < # ; - - # - ; < # ; ; - - # # # - - @ # ; j P A 1 c b # # # - # # ",
"%.G K < ; ; - - < - # ; a u < u C D %.< - ; ; < 2 < < # - ; < ; - # ; - < 3 ; ; ; < < # # # - # # - - ; ; D J < m 4 # @ @ # # # ",
"G C %.G 3 3 - # - # - 1 D j z K z J %.K < < # - < 2 2 - # - 2 2 2 - < ; 2 3 ; < ; ; ; ; - - < - # < y 3 ; ; i < m < - # @ @ # # ",
"z l %.J j y 3 2 ; ; 1 C J V l G z K J K j 3 - # ; 3 2 < - # 3 3 3 < ; 2 3 3 2 u < ; - ; < < < - - 1 j i < - ; ; 4 ; - - # # # # ",
"j z P C C a 3 3 2 < u K K G j j A P A D j d 1 - ; 2 3 2 < - 3 3 i 3 ; < 3 3 3 y 3 - - - < < ; - < < u j 1 < ; ; # - - < - # @ O ",
"d j j l C K u 3 3 y y C J G d y V K l l j z g < ; - < 3 2 < 3 y u u < 3 2 3 3 3 3 2 - - < < - ; 2 ; y d z 3 ; - @ # - h ; # - # ",
"d d y p V %.D l j d y y V D s y j C z d d j j y < ; - 3 3 3 3 3 u y 3 3 3 3 3 3 3 y < ; 3 - . . - < y p d u < - # @ - < - ; - - ",
"j s 3 3 u A %.G j y d u y l d f j j l z d d y s j i < ; 3 3 3 3 y y 3 3 3 3 3 3 s 3 3 y 3 .     . < 3 3 y y 3 ; < - # - ; 3 1 < ",
"y y y s y u J K d 3 p j y y s R s s j j j s 3 3 u C u < 2 3 3 3 3 y 3 y 3 3 3 3 y y y 3 3 + .   o Q.~.Q.+.n y 2 2 - - - 3 y V G ",
"y 3 j l j u u V R R x d s y y M 3 y j j y y y s y y D 1 3 3 3 3 3 2 n ) }  ... X7X7X7X5X$Xe o   o  X*X*X$XOX| 3 < < 2 < s s K J ",
"y y j D C j y y d 9.t.9.~ I y f 3 y j j y 3 d l d y N +.@.@X&X7X7X#.0 & & o 0 e  X5X-X-X-X$Xe =  .-X7X6X-X*X@X_ a u d x j j P C ",
"s u u V K l d y y s / y.s.0.W 3 3 p j s y +.~._.~.OX=X7X7X7X7X7X7XO.= o o   o & r &X7X-X-X5X7X-X7X7X7X7X7X6X-X$X` C C V Z k j Z ",
"j d 3 j G J j s y y s R s.e.e.R 3 p s @.}.XX%X5X7X7X7X7X7X7X7X7X7Xo.= o     o & 0 [.7X-X-X-X7X7X7X7X7X|.{.-X5X-X.XR H V Z Z s x ",
"j d 3 j C J V p s 3 y f R r.e.s.{ +.$X7X7X7X7X7X7X7X7X7X7X7X7X7X7Xo.0 o     o o & o.7X5X-X-X7X7X7X7XO.& 0 |.5X5X&X!.V j x Z x k ",
"3 d y j j G V j u 3 y s f ' /.#X7X7X7X7X7X7X7X7X7X7X7X7X7X7X7X7X&XO.0 o         o e @X5X-X-X7X7X7X@X=   &  X7X5X=XOX` d k x Z x ",
"u 3 y d d D z d y 3 p s @.&X5X7X7X7X7X7X7X7X7X7X7X7X7X7X7X7X7X7X[.r 0             o $.-X-X5X7X7X7X$.& o o.7X7X6X*X$X@.2 3 F Z Z ",
"d y 3 y d D j y 3 p N }.=X5X5X7X7X7X7X7X7X7X7X7X7X7X7X7X7X7X7X7X..0             o    .&X-X7X7X7X7X X) ..5X7X7X7X*X%XX.# - U F F ",
"V j 3 y p j s y u { $X5X7X7X7X7X7X7X7X7X7X7X7X7X7X7X7X7X7X7X7X|.e o                 & [.-X7X7X7X7X7X-X7X7X3X5X5X-X=X .& * | U F ",
"J Z k u x d y s _.4X4X-X7X7X7X7X7X7X7X7X7X7X7X7X7X7X7X7X7X7X7XO.q                   o o.=X7X7X7X7X7X7X7X2X3X5X5X5X7X|.r O..X^ Y ",
"&.H F d x d f ~.%X*X5X5X7X7X7X7X7X4X7X7X7X7X7X7X7X7X7X7X7X7X7X .=                   o r &X7X7X7X7X7X7X4X<X7X7X7X7X7X7X-X&XXX[ Y ",
"&.&.F Z k d E OX*X5X5X5X7X7X7X7X2X4X7X7X7X7X7X7X7X7X7X7X7X7X$X .          +         & q &X7X7X7X7X7X5X<X4X7X7X7X7X7X7X7X%XR.Q Y ",
"*.&.Y I V V T.XX5X5X5X5X7X7X7X4X1X7X7X7X7X7X7X7X7X7X7X7X7X7X Xe         : +           0 |.6X7X7X7X7X2X1X7X7X7X7X7X7X6X#X| Q Y U ",
"&.&.T U F K R.5X5X5X5X5X5X7X7X<X4X7X7X7X7X7X7X7X7X7X7X7X7X7X@X)       + ,             = [.7X7X7X7X4X<X5X7X7X7X5X-X@XT.Q F F Y Y ",
"Z K T U J K ^.7X5X5X5X5X7X7X2X2X7X7X7X7X7X7X7X7X7X7X7X7X7X7X}.w o     , +             o |.7X7X7X7X,X2X3X7X7X=X_.[ Z U Y Y U Y Y ",
"F Z Y Y H T ^.7X5X5X5X5X7X4X<X7X7X7X7X7X7X7X7X7X7X7X7X7X7X4XQ.e 6 + > >               o [.4X7X7X<X,X2X3X5X.X' Z U Y Y Y ! Y Y U ",
"T Y F U Y T !.5X-X5X5X7X7X,X3X7X7X7X7X7X7X7X7X7X7X7X7X7X7X<X}.r 0 b ' :     .         % _ .X*X1X;X+XoXR.~ F U Y Z Y Y -.Q Y Y I ",
"T Y Y U Y T T.#X5X5X5X7X<X,X7X7X7X7X7X7X7X7X7X7X4X7X<X>X<X2X-Xo.q ( N ' >   N $     X 8 ; Q [ l.w./ U Y Y U U Y F Y ! >.U Y Y -.",
"&.T T U U Y T `.5X5X5X2X>X3X7X7X5X4X7X7X7X7X7X2X4X7X6X].).].;XXX_ ( 8 W ' + B $ >   8 E c Y 4.w.<.-.Z Z Y Y U Y K T >.! Z Y <.<.",
"1.&.r.! U F U ( X.$X4X:X>X7X7X7X7X,X;X2X7X7X2X<X7X7X6X;X].).W.).W.) 6 7 ] ` c + b . ] l.m <.w.j.r.~ Y U U U Y Y T >.>.U F -.4.-.",
"s.:.i.-.-.Z c E & ..].).<X7X-X$.o.+..X).1X7X].1X7X7X:X'.4X+XW.K.K.T.* 8 ] r.B $ E N k.k.f r.r.r.w.w.! Y w.Q Y Y -.r.T Z Y 5.4.-.",
"s.p.6.-.5.U [ 9.X 9 /.(.(.W.( 9 % 6 _ /.).>X'.+X`.R.A.n.T k ' v.e.6.M : k.s./ 7 7 h.J.l.t.c.c.<.-.w.s.! r.Q -.T r.z.! F 4.6.>.>.",
"s.d.7.:.i.,.0.' $ B { ^.E.C.y.^ ] > 7 +.Z.N.4.! 5.r.S.c.T R E 0.v.r.<.M Z.b./ E 8 h.Z.C.M.N.b.! -.2.s.i.<.! 4.<.N.N.! >.u.6.2.:.",
"N.f.p.3.2.l.Z.k.9.] W m ( [ v.q.v.N , E S.F.e.;.N.N.N.j.Q ,.B b ] c.s.6.F.F.0.k.[ G.k.G.N.V.b.<.T <.z.d.5.-.5.r.n.b.-.p.i.6.1.*.",
"F.M.p.p.3.] C.C.M.c.[ - 4 c 0.v.s.e.E m P.P.i.u.N.H.G.N.b.0.B + 4 c.F.N.F.V.G.C.C.G.F.S.N.H.d.u.>.-.F.m.i.4.s.b.n.s.e.i.m.s.1.*.",
"F.L.d.N.a.v.k.S.D.b.r.m # 8 9.s.c.r.s.9.P.P.d.F.S.M.F.F.B.z.W . : 8 S.P.P.S.H.K.G.K.P.F.v.v.b.x.7.i.P.B.p.N.n.n.N.b.x.i.s.u.a.1.",
"m.V.H.F.s.l.F.S.N.H.i.4.5 > v.x.r.k.S.N.P.I.S.P.F.P.S.H.B.x.4.c . 7 k.N.P.V.P.U.G.P.F.F.C.W 9.S.d.S.I.P.N.H.F.H.F.P.m.m.6.2.p.s.",
"P.L.P.P.i.v.P.N.c.l.n.z.4.k.G.M./ G.P.H.P.P.H.P.S.F.F.F.m.H.i.4., 7 G.x.N.H.P.P.P.U.F.S.S.0.M l.F.P.P.F.P.P.b.F.I.V.V.N.:.1.3.s.",
"P.B.I.U.H.P.F.S.l.E k.S.s.H.P.H.l.G.P.Y.I.I.F.P.s.F.I.F.m.F.k.z.<.k.K.M.y.I.U.H.H.U.N.S.S.y.t.^ N.U.P.F.P.P.M.N.I.S.B.m.3.*.2.s.",
"V.F.V.F.I.F.F.G.s.W M n.H.P.F.P.G.P.Z.I.Y.P.P.Y.S.I.P.L.F.x.0.Z.b.P.U.H.Z.U.Y.Y.P.P.m.F.M.0.t.r.b.I.I.V.P.U.H.P.V.F.F.a.8.1.:.N.",
"6.S.P.m.B.P.N.N.M./ E t.B.H.P.P.P.I.l.C.I.P.F.S.P.U.F.P.B.b.2.Z.K.U.P.F.U.I.H.U.P.F.B.P.H.y.C.M.H.F.P.V.I.Y.U.U.S.N.N.S.d.7.3.H.",
":.N.I.P.M.F.H.m.f.w.^ v.m.F.P.F.U.Y.G.P.P.P.P.m.V.P.F.U.B.V.u.v.P.Y.P.I.I.I.p.H.I.F.m.S.F.G.H.F.H.H.S.P.U.U.U.I.H.b.6.b.S.g.8.P.",
"6.N.H.H.P.S.F.P.M.p.n.G.M.V.I.N.U.Y.I.S.F.P.I.P.B.V.F.U.V.F.S.H.P.U.Y.P.P.I.N.I.F.F.P.N.f.P.P.I.P.F.V.H.U.Y.I.P.F.u.=.2.F.P.S.F.",
"M.N.b.u.S.P.F.P.P.N.p.P.P.F.I.F.Y.U.I.S.S.N.N.P.I.F.m.P.I.L.U.H.I.I.U.P.B.m.P.U.F.F.B.P.M.V.I.U.P.V.P.S.H.I.P.B.N.p.*.1.3.H.I.P.",
"F.F.N.m.b.S.P.F.P.I.F.F.F.U.P.P.U.P.F.F.P.f.p.u.H.U.M.V.L.U.Y.F.I.P.P.F.P.m.f.I.F.H.m.F.P.F.F.I.I.L.P.N.V.F.P.B.f.p.6.*.3.b.B.P.",
"b.F.F.B.N.s.N.P.F.I.I.I.F.I.I.P.U.I.F.F.F.m.d.7.a.Y.V.F.I.I.Y.H.U.V.F.F.I.P.V.d.V.P.M.m.I.Y.I.P.I.V.H.d.N.H.S.m.F.a.p.1.:.F.m.V.",
"N.N.H.B.f.p.u.M.F.P.B.I.F.P.U.P.U.P.P.F.p.p.S.a.F.I.I.P.I.I.Y.U.I.f.F.V.S.H.P.d.F.I.P.N.P.U.Y.I.I.f.P.7.F.P.V.d.b.m.d.7.p.P.M.m.",
"N.H.S.m.F.a.p.u.M.U.B.F.P.F.P.I.Y.L.P.S.7.:.M.F.P.L.F.U.U.F.H.Y.F.m.P.f.p.u.M.F.P.F.F.P.P.F.Y.Y.F.m.I.N.P.F.V.m.6.p.S.a.F.I.P.N.",
"F.P.V.d.b.m.d.7.N.U.V.F.I.P.F.P.Y.V.F.B.p.2.2.V.I.P.F.P.U.P.P.I.m.F.F.f.p.2.2.V.I.P.F.P.P.u.H.I.m.B.m.P.U.S.S.f.7.:.M.F.P.F.F.P."
};
