/* XPM */
static char *_c9a2a91e89149b7f59455c5167cc3f32acILkuoN7tJhyAw[] = {
/* columns rows colors chars-per-pixel */
"64 64 210 2 ",
"   c #071702",
".  c #071903",
"X  c #081D03",
"o  c #072303",
"O  c #0A2404",
"+  c #032903",
"@  c #0B2B04",
"#  c #122C05",
"$  c #063103",
"%  c #0D3405",
"&  c #0D3B06",
"*  c #123506",
"=  c #123D06",
"-  c #193B07",
";  c #12350A",
":  c #193B09",
">  c #0E4406",
",  c #0D4B06",
"<  c #124407",
"1  c #1C4207",
"2  c #104D07",
"3  c #144608",
"4  c #1E4508",
"5  c #144D08",
"6  c #1B4C08",
"7  c #0F5307",
"8  c #125207",
"9  c #145B07",
"0  c #195C06",
"q  c #145308",
"w  c #1A5509",
"e  c #155B09",
"r  c #1B5C0A",
"t  c #1C4911",
"y  c #1C5712",
"u  c #1E5C11",
"i  c #214308",
"p  c #234B09",
"a  c #294C0A",
"s  c #24540A",
"d  c #2A530A",
"f  c #225D0A",
"g  c #2B5B0C",
"h  c #325D0C",
"j  c #215A10",
"k  c #166307",
"l  c #1A6207",
"z  c #1C6C07",
"x  c #156309",
"c  c #1C630A",
"v  c #166C0A",
"b  c #1D6A0B",
"n  c #1E7207",
"m  c #17720A",
"M  c #1B740A",
"N  c #1B7B0B",
"B  c #1A7E0B",
"V  c #1A7F0C",
"C  c #1D6411",
"Z  c #1E6A11",
"A  c #26610A",
"S  c #24630B",
"D  c #2A650B",
"F  c #2D620C",
"G  c #216D0C",
"H  c #2D6A0C",
"J  c #32620C",
"K  c #39660C",
"L  c #326C0C",
"P  c #336D0D",
"I  c #3B6C0E",
"U  c #22730C",
"Y  c #2C710D",
"T  c #217A08",
"R  c #227B0B",
"E  c #297B0D",
"W  c #35730D",
"Q  c #3C750E",
"!  c #367B0F",
"~  c #3C7A0F",
"^  c #226711",
"/  c #226C14",
"(  c #2B6A15",
")  c #286519",
"_  c #306D19",
"`  c #257413",
"'  c #2B7615",
"]  c #267A12",
"[  c #2A7D13",
"{  c #277618",
"}  c #2A751B",
"|  c #277A18",
" . c #2B7B1A",
".. c #387716",
"X. c #3D7C13",
"o. c #30741E",
"O. c #357C1B",
"+. c #327A20",
"@. c #406E0F",
"#. c #41740F",
"$. c #427A0F",
"%. c #457D10",
"&. c #487F10",
"*. c #1B830C",
"=. c #1C820C",
"-. c #1B840C",
";. c #238509",
":. c #228608",
">. c #28820D",
",. c #248C09",
"<. c #39840E",
"1. c #279209",
"2. c #279409",
"3. c #2A970E",
"4. c #238213",
"5. c #2C8314",
"6. c #248B12",
"7. c #2D8A15",
"8. c #2D831B",
"9. c #2F8D19",
"0. c #37831D",
"q. c #328B1A",
"w. c #3B8B1A",
"e. c #269015",
"r. c #2B9117",
"t. c #2F9911",
"y. c #2B9419",
"u. c #2E9A1B",
"i. c #35931D",
"p. c #38961F",
"a. c #36991B",
"s. c #339C1D",
"d. c #34A116",
"f. c #35A21D",
"g. c #3AA41D",
"h. c #34A91E",
"j. c #338520",
"k. c #3A8722",
"l. c #348B20",
"z. c #379322",
"x. c #3B9524",
"c. c #339F20",
"v. c #3C9B24",
"b. c #3E9E28",
"n. c #37A421",
"m. c #3BA424",
"M. c #37A921",
"N. c #3DAB25",
"B. c #3FA528",
"V. c #3FAC28",
"C. c #3EB126",
"Z. c #3FB028",
"A. c #40800F",
"S. c #458212",
"D. c #498010",
"F. c #4D8411",
"G. c #4E8511",
"H. c #438D16",
"J. c #4D8913",
"K. c #458E1B",
"L. c #4E8F19",
"P. c #508711",
"I. c #518912",
"U. c #528912",
"Y. c #4A931D",
"T. c #459B1E",
"R. c #549317",
"E. c #52951A",
"W. c #539A1E",
"Q. c #429423",
"!. c #429D25",
"~. c #499C21",
"^. c #409429",
"/. c #429E2A",
"(. c #509E24",
"). c #42A325",
"_. c #4BA225",
"`. c #41AC25",
"'. c #4DAA25",
"]. c #43A42A",
"[. c #4BA72C",
"{. c #43AB2B",
"}. c #4AAC2D",
"|. c #53A424",
" X c #55A925",
".X c #54AC2A",
"XX c #42B127",
"oX c #44B42A",
"OX c #4AB42E",
"+X c #46B82D",
"@X c #4ABA2E",
"#X c #54B32E",
"$X c #58B62E",
"%X c #51B92F",
"&X c #47AC30",
"*X c #4AAD30",
"=X c #4CB432",
"-X c #47BB30",
";X c #4DBC32",
":X c #53B531",
">X c #58B631",
",X c #52BD34",
"<X c #59BC34",
"1X c #55BF38",
"2X c #4FC034",
"3X c #53C236",
"4X c #58C237",
"5X c #56C439",
"6X c #59C63B",
"7X c #59C83C",
/* pixels */
"-.-.-.N 7 , x -.M x M -.-.B N -.-.N 7 , 9 N -.*.2 & 2 e v v x v 2 > N q M v N v 8 M -.e q x m -.-.-.-.-.-.-.*.v N -.-.N m e e m ",
"M *.-.V 9 , , V e x -.-.-.*.x 9 m -.x , , *.*.,.v 2 > % & 2 M m v > 2 x N 8 M < & M v q < 2 v -.-.*.-.-.-.-.v m -.*.v M v , , m ",
"M m -.v 8 7 , 2 > v -.-.-.-.m x > v M , , m ,.1.8 N v & O O e *.v > @ 8 v < q & & M q r S r > 9 v q M *.-.M q B -.v q m x , 7 B ",
"N e *.< > x , $.P.w , w e x 9 n S w q , , 9 1.1.2 V V 2 @ O @ v N % X & q x & @ % & > F G.P , 2 x q M v M 8 2 *.N 8 9 M 7 , v -.",
"M 8 9 & > v , %.P.w G.D.2 2 2 ~ U.S , 2 , v 2.,.2 *.:.M & @ @ @ e % X & f G 2 @ @ X @ F U.P 2 , 2 x N 8 e & & V 9 8 e v , 7 *.-.",
"x v & @ % & , %.P.q &.P.w , 2 Y P.P , 2 8 7 2.T 1.2.:.e e > @ O X 0 X @ I U.S , > O X p P.P 2 , 3 w x , 8 & > x 2 q v 7 , v -.-.",
"8 x 8 % @ X & D.P.q Q U.S , 2 r P.Q , 2 , 9 ,.:.z 8 > q N v @ X w T . O $.P.w , 2 @ @ h &.S 2 2 I Q q , 2 < & % > q v , 7 B -.-.",
"% 8 & & O . G.G.8 2 D G.S , > * G.%., 2 k :.:.1.T O @ 2 *.m x O T 2.% O G.G.2 2 2 @ 1 G.Q , 2 2 D.%.q 2 2 > % O @ 9 7 , x *.-.V ",
"@ q % X X O G.G.2 w G.Q , 2 , O G.D., 2 v v , T 1.0 X @ 9 *.v & T 2.  # G.%., 2 , @ r U.$., 2 , $.G.w , 2 & O X @ > , , v m -.v ",
"@ e % X . % G.G.2 q G.D.2 2 2 O G.G.2 2 9 2 , > :.,.@ O O v M @ < T X i P.W , 2 > O & h J , 8 > J G.S , 2 % O O 2 , , 9 N b *.< ",
"O % O X X O o o 8 2 G.G.5 8 2 = %.P.q , 2 & , , % < > % O z ,.,.,.1.& h U.D , 2 % O p - @ & % @ d G.H , 2 % X & 9 , > 2 4.r 9 & ",
"  O X O @ G.D., o o O o & % & 5 #.U.r , 2 @ > , > % e % O v T n 0 z ,.Q U.r , 2 @ # #.S.w $ % @ a G.H , , %   2 , , & 5 | v & @ ",
"    X % * G.D., 2 w %.P % @ & q I U.S , 2 % @ , , % & & @ % X   X X w <.G.q , 2 O O $.D.w , 2 O p G.W 2 2 & X % , , % u e x < @ ",
"X   . & * G.%., 2 S P.~ , 8 , & J P.P , 2 %   , , & O @ % @ X .   . # G.D., 2 2 X . %.G.q , 2 O - P.$., 2 , @ > , > : w % 2 @ % ",
"@ @ O X * G.%., 2 q G.D., 2 2 O p P.~ , 8 >   & , , @ @ * O . X .   : G.Q , 2 > X O #.G.w , 2 O O &.D.8 , 2 & , , & t @ @ & O X ",
"x 2 % O # G.$., 2 2 %.P.w , 2 @ * I 4 + o o O @ > , @ @ @ @ X X = O g U.P , 2 & O # I G.f , 2 @ @ I D.r , 8 k 9 > t ; O % @ O X ",
"-.V < @ * G.$., 2 , I U.S , 2 % @ 2 d J > , 2 @ & , & O O @ % 5 = O * d 6 > 8 % @ * h G.D , , % @ K J.f , 9 9 ,.,.j . T n O X X ",
"*.m N % 1 G.Q , 2 > d P.P , 2 2 x v U.U.8 2 2 % & , , O O @ % M M X @ i * O o O @ * J G.D , 2 % O p g 6 % @ o ,.1.c z 1.@ X X X ",
"m x *.m s G.Q , 2 > 1 G.$., 2 q e M G.P.q , 2 @ % 2 9 q X O % ,.,.O * U.U.8 , > @ @ h U.D , 2 % . & 6 1 4 & , 2 1.,.:.l     X X ",
"e e *.M D G.W , 2 > = G.D.2 2 2 e N S.U.r , 2 O @ > M :.M X = ,.T % - G.%., 2 2 % - @.%.f , > @ O & f U.$., 2 > :.1.:.0 :.,.5 . ",
"q e B Y P.P , 2 < & < S.G.q 2 8 v B ~ U.S , 2 % @ % 7 ,.1.T 5 1.c = p P.W , 2 2 = d P.D , , & O * % w G.%.8 , > z 1.N ,.T @     ",
"5 q q H P.P , 2 2 < F P.f , 2 < x N P P.H , 2 > @ @ > , v :.T :.2 < J U.D , 2 < = d G.P , 2 > % * @ 6 $.%.w , > ,.n O q @ X O . ",
"5 3 < D P.P , 2 2 3 J P.P , 2 2 q k H G.W , 2 2 % @ % , > q T ,.:.3 #.U.r , 2 < = s G.Q , 2 < = & % 6 Q D.r , 9 9   O % O @ O O ",
"q 3 = J P.H , 2 8 < f G.$., 2 2 q q S G.$., 2 2 q 2 % , :.1.,.n ,.c D.G.q 2 2 = 3 s G.Q , 2 2 * % % < Q P.r , 9 = O X O @ = & % ",
"< < < I P.D , 2 2 = 6 G.D.2 2 2 3 3 w G.&., 2 2 < x < 9 M k < = q U G.&., 2 2 = < g P.Q 2 , 2 = * % , P U.D , 2 < O O O = < x m ",
"< = q W U.S , 2 r ( c %.P.w , 2 < < e G.G.2 2 2 < < v & , , < = = s G.Q , 2 2 5 x S G.Q q , 2 < = < , S G.W , 2 > % * % 3 < N M ",
"< < q ~ U.S , 2 5 k.x.S.U.S , 2 , < q D.P.q , 2 5 < < q , , > = = J U.P , 2 2 w q G D.$.q , 2 < = , , w G.Q 2 , 2 < 5 r q q B k ",
"3 < < ~ U.f , 2 < 3 O.K.P.P , 2 , 3 q $.U.r , 2 5 3 < < , , , < = Q U.f , 2 q q q n G.S.2 , 2 3 > , , f D.Q q , 8 x k c c w q c ",
"q 5 = ~ U.f , 2 < < 3 ( G.$., 2 , 2 3 I U.S , 2 q 3 5 3 < , , < = %.P.w , 2 q < 3 M J.G.8 8 2 < , , , p D.%.q , 2 k n c c c 3 r ",
"q 5 = W G.r , 2 2 = < 6 G.G.8 8 2 , = J U.H , 2 q w 3 w 3 , , , r G.D.2 2 2 3 = < 8 J I < % < 2 , , < w %.G.w , 2 c c q r c w w ",
"= 3 * @ o o o 2 < = < 3 D.G.3 % > ,  ...U.Q , 2 2 w 3 w 3 2 , , S G.$., 2 2 < = < 6 - o o & < 2 , , 5 w $.P.f , 2 r c 3 q r c w ",
"3 = %.U.w , 2 3 < = 3 % @ o o % > , { x.O.@ o o O % w 5 = q , , H U.W , 2 q r w w I D.S , 8 2 , , x b b W G.P , 2 e r w 3 b c c ",
"3 < %.P.w , 2 < = 3 5 p %.P , 8 , , 2 z.i.I $., 8 8 c w 6 r 8 , q p 6 > 2 c G c G %.G.f , 2 8 , , b T R W U.D > , q q w w G b b ",
"c q &.P.q 2 2 < < k e S U.$., 2 , , , u x.G.G.2 2 2 c r 6 c c , , g 1 @ o O r G c %.U.r , 2 , , q b T T G g 4 % o @ 2 c r U G b ",
"M c D.G.q 2 2 < e N N n G.G.2 2 2 , , r ' G.P.q 2 2 c r r c c 8 , G.U.q 2 , r G G $.U.f , 2 , 8 b G U U ` H h J 2 2 8 G G G G U ",
"=.n D.G.8 2 2 q n N -.-.S.P.w , 2 c 9 :.w G.U.r , 2 b c G b b q 8 G.&., 2 2 c G G ~ P.S , 2 , c U G b ] 5.G J.U.q , 2 b U U G U ",
"=.=.G.G.2 2 2 x R R -.=.<.U.S , C b 9 1.w Q U.S , 2 c G T T G c f G.Q , 2 r G U G W G.P , 2 8 G T U G 5.] G %.D.f , 8 c G U G U ",
"-.=.G.G.2 2 2 N R R =.N <.P.P b ^ e 9 1.c P P.H , 2 r U T T U b H U.P , C c U T G W G.P , 2 e G 1.M [ 5.G G ~ D.S , 2 k c G U G ",
"=.=.G.D., 2 8 T R R T T E G.%.7.3.,.:.1.k H P.W , 2 e G T R R ` Q U.f q Z r G T U ! P.P , 2 r T 1.T 7.U G G Q G.D , 2 k b b U U ",
"c T G.D., 2 8 N R R G U T G.L.^ M ,.:.:.9 U G.~ , 2 q c c R 5.] D.P.w ^ e b U U G ! U.P 2 , r :.2.a.t.3.,.U W U.P , , r U G U U ",
"b G G.D., 2 8 R R R G b b J.E.r , 8 T 1.:.U G.%., 2 8 G c ` 7.U J.J.C Z 2 U T U G Y G.P 2 , e U d.d.t.5.U G Y P.Q , 2 q ` U U G ",
"T U G.%., 2 q R U G b U b K.R.S , 9 ,.1.1.1.G.G.2 2 2 R T [ G Y G.Y.z.C 8 U T T c S G.X., , q [ g.5.7.U T b G G.%.2 , Z U U T S ",
"T E G.$., 2 q R U G n R 9.w.U.W m ,.1.M , k S.G.r 2 / q.q.5.c W U.Q. .z./ G v.[ r w J.Y.8 2 r g.i.[ G U T G U S.%.w q / c U T 8.",
"=.E J.$., 2 q R U G T 6.i.5.G.$.N >.9 k , , S.R.S , 8 b.OXv.i.K.W.0.Z l.v.] v.` ^ q E._.^ 2 s.v.q.5.c c U U U S.D.f Z w r U q.q.",
"e.>.|.S., 2 r q.T U U i.u.T G.G.q /  .] 9 , S.E.S , 8 i.).].B.'..XS C / v.m.i.b { w .X>X/ / p.!.b.' U G G G U A.G.' Z 2 c 5.i.5.",
"N.7.|.S.C 2 ` v.T T b.{.r.=.S.P.r C { v.` , _.E.D , { !.` 5.].OXoX{ 8 / v.N.i.Z j.w.$X:X^ 8.l.z.z.z.[ T z.` U ~ R.Q.q 2 c i.i.5.",
"N.).W.X.{ 8 b.].T q.x.=X=XN.T.E.H q ^ z.m.{ !.R.X.e b.b.T T !.:X`.s.Z e ].XXv.` Z }.4X>X].v.b.q.5.z.B.[ v.` 5.! |._.e 2 8.p.7.7.",
"N.`.|.X.j.8.].!.` v.v.v.{.-XoX'.[.e Z { `.{.) ; ) o.&X].T 9.!.$X:Xm.s.| =XoXv.j.{ OX<X1XOX}.].` 5.r.B.m.q.] i.w.$X#Xc / q.s.r.6.",
"OXXX'.w.Z ].=XOX{.].b.q.q.{.@X`.OX8.Z ` =X=X~.S.].{.].!.` 0.} _ Q.&XV.f.,X,Xm.{.].5X>X3X+XOX{.q.T 9.].N.i.5.p.!.$X[.w j.z.s.e.-.",
"=XoX'.Q.` x.=X;X+XoX].] 7.i.`.%XoXn.l.{ 3X3X'.|.].=X=XOX{..X(.w y &X,X-X=X@X,X=X,X,X,X=XOX,XN.M.7.5.=XXXm.i.b.x.^.k.} j.{.N.e.-.",
"OX=Xx./.+.}.OX3X-XoXN.q.T 9.{.oXOXm.{.).5X3X'.<X}./.=X;X+XOX Xq Z { ,X5X3X-X3X5X1X1X3X;X}.[.{.`.f.m.3X+Xn.OX}.[.#Xx.m.z.B.n.N.e.",
"oX@X,X*Xx.OX,X-X@X3XV.M.7.7.}.`.b.].=X-X3X5X:X4X=X;X&X,X+XXXm.| 8 / }.@X3X-X3X6X3X6X,X3X=Xl.z.=XN.-X5X3XOX,X=X1X<X,XN.B.9.r.n.N.",
"3X2X3X,Xl.=X3X@X-X=X-XoXf.OX5X+X).,X5X3X3X3X,X5X}.=X;X=XXX3X{.c.Z { ,XXXOX;X5X5X5X6X,X,X=X].5.{.;X3X3X2X3X3X{.:X5X@XOX].M e.y.N.",
"5X+X5X6X=X5X3X;X@Xm.OX;XN.3X5X3XOX,X6X7X5X5X;X3X!.=X5X;XoX>X}.{.s.{.5XoXB.5X6X3X3X6X@X:X-X].V.s.OX6X3X-X3X5XoXOX5X-XOX{.5.=.y.N.",
":X,X@X;X5X;X;X3XXXm.s.=X3X3X3X3X4X5X:X6X7X3X3X7X:X5X3X;X,X.XQ.=X{.5X6X,X-X6X6X7X5X5XoX,XoXb.}.{.oX5X5X@X3X6X,X5X@X=X=Xn.f.6.6.OX",
"~.<X3XXXoX3X@X@X+XN.n.oX+X3X3X3X5X6X*X=X6X3X;X-X3X5X;X3X+X#X' =X5X6X5X;X6X5X=X6X3X-X+X5X,X{.=XoX,X;X3X@X5X7X6X6X=X:X].}.m.f.u.,X",
"H.>X5X3XoX-X3XXXC.N.m.=XoX;X5X;X6X7X,X5X3X3X3XoX@X3X=X6X+X@Xq.].5X7X5X5X5X5Xq.,X5X;XoX-X;X,X,X;X,X,X-X3X6X6X6X6X1X.X .b.=XZ.h.3X",
"~.>X,X=X,X-X;X3XoXN.@X3X+X@X5X+X5X7X5X@X;X3X5X3X+X@X=X6X@X:X*X=X1X6X7X3X3X5X].3X;X;X3XOXC.3X,X5X3X;X@X,X6X7X5X3X<X|.S ^ =X,X-X;X",
"#X>X/.8.}.,X;X3X3XOXN.3X3X;X5X;X7X7X5X-X-XOXOX4X6X=XoX3X5X,X5X,X5X5X6X3X+XoX,X5X-X=X@X3XoX@X5X6X3X@X3X=X,X5X5X+XOX XD r { ;X5X3X",
"<X<X{.b.b.-X3X;X3X5X;X;X;X6X3X3X6X3X;X;X3XN.M._.<X6XoX@X2X6X6X=X5X5X3X;X3XXXC.5X=X,XoX=X1X;X;X5X5X2X3XOX@X;X3X+XXX`.w., / ].+X3X",
".X>X=XOX{.m.OX3X-X5X5X5X-X5X5X3X6X5X;X=X*X{.N.g..X7X@X;X5X5X7X=X6X@X;X;X5X3X+XN.OX5XOX}.5X7X5X3X5X@X,XV.OX,X-XXX,X`.n.Z r =XXX@X",
"$X>X,X+XN.M.n.oX;X5X+X5X-X3X6X3X6X3X,X=Xl.z.=XN.;X5X5X3X5X5X7X6X5XC.;X@X=X,X,XN.-X5X3XOX1X6X7X5X3XC.3Xf.=X3X@XV.}.#X`.s.l.,XoXXX",
">X,X=X`.=XN.M.M.oX6XoX;X3X;X3X5X6X,X,X=X8.Z oX,X3X;X;X6X6X;X,X7X-XoX3XC.n.n.].=X3X;X;X4X,X=X7X7X-XoX5XOX5X;X@XXXs. X>XN.-X3X3XOX",
"<X5X@Xb.b.XXN.f.OX6X@X;X7X5X;X3X6X@X,XOXz.` y.=X6X3X-X3X6X3X3X5XoX;X;XC.N.y.| {.5X3X-X3X1Xi.;X5XXX+XoX3X6X-X=XC.f.L..X=X3X;X-X3X"
};
